<?xml version="1.0" encoding="utf-8"?>
<!-- Generator: Adobe Illustrator 26.2.1, SVG Export Plug-In . SVG Version: 6.00 Build 0)  -->
<svg version="1.1" id="Camada_1" xmlns="http://www.w3.org/2000/svg" xmlns:xlink="http://www.w3.org/1999/xlink" x="0px" y="0px"
	 viewBox="0 0 275.9 343.7" style="enable-background:new 0 0 275.9 343.7;" xml:space="preserve">
<style type="text/css">
	.st0{fill:#BD94CB;}
	.st1{fill:#E0C3F8;}
	.st2{fill:#9B77AC;}
	.st3{fill:#8D559B;}
	.st4{fill:#B5A3C3;}
	.st5{fill:none;stroke:#9B77AC;stroke-width:6;stroke-miterlimit:10;}
	.st6{fill:none;}
</style>
<g id="a">
</g>
<g id="b">
	<g id="c">
		<g>
			<g>
				<path class="st0" d="M6.6,215.6l11.5-10.8c-0.1-1.8-3.1-3-5.1-3.6c-1.1-0.3-1.8-1.3-1.9-2.4c0-1.3,1-2.4,2.3-2.4
					c4.2-0.1,12.7-0.8,15.2-1l3.7-3.3L47.2,212l-17.4,19c-0.8,0.7-1.9,0.8-2.9,0.3c-1.1-0.6-1.6-1.9-1.3-3.1l2.2-8
					c0-0.1-0.1-0.2-0.1-0.1l-7.9,8.8c-1.2,1.1-3,1.3-4.4,0.4l0,0c-1.7-1-2.2-3.2-1.2-4.8l5.8-10.2l-0.1-0.1l-7.3,5.7
					c-1.3,1-2.9,1.8-4.4,1l-0.7-0.4C6,219.6,5.4,216.7,6.6,215.6L6.6,215.6z"/>
				<path class="st0" d="M267.6,198.7l-13.9-7.3c-0.4-1.8,2.2-3.7,4-4.8c0.9-0.6,1.4-1.7,1.1-2.8c-0.3-1.3-1.5-2-2.8-1.7
					c-4.1,1-12.5,2.6-14.9,3.1l-4.5-2.2l-9,23.2l21.8,13.7c0.9,0.5,2.1,0.3,2.9-0.5c0.9-0.9,1.1-2.3,0.4-3.3l-4.5-5.8
					c-0.1-0.1,1.1-1,1.1-0.9l9.2,5.9c1.4,0.8,3.2,0.4,4.4-0.8l0,0c1.3-1.5,1.3-3.7-0.1-5l-8.8-7.5l0.6-0.9l8.5,3.6
					c1.5,0.6,3.3,1,4.5-0.2l0.6-0.6C269.3,202.3,269.1,199.4,267.6,198.7L267.6,198.7z"/>
				<path class="st1" d="M84.6,174.4l26.4-36.9c3.2-4.5,3.1-11.2-0.2-15l0,0c-3.3-3.8-8.6-3.3-11.8,1.2l-26.4,36.9
					c-3.2,4.5-3.1,11.2,0.2,15l0,0C76.2,179.4,81.4,178.9,84.6,174.4L84.6,174.4z"/>
				<path class="st1" d="M47.2,213.2l33.2-33.2c4.4-4,4.8-10.7,0.8-15.2l0,0c-4-4.4-10.7-4.8-15.2-0.8l-36.6,29.4
					c-6,5.4-7,14.2-2.1,19.7l0,0C32.3,218.6,41.1,218.7,47.2,213.2L47.2,213.2z"/>
				<path class="st0" d="M48.1,178.6l-18.6,14.9c-6,5.4-7,14.2-2.1,19.7c3.5,3.9,8.9,5,14,3.4c2.1-0.7,4.1-1.8,5.8-3.3l17.6-14.5
					L48.1,178.6L48.1,178.6z"/>
				<path class="st1" d="M185.1,171.9l-27-36.4c-3.3-4.4-3.3-11.1,0-15l0,0c3.3-3.9,8.6-3.4,11.8,1l27,36.4c3.3,4.4,3.3,11.1,0,15
					l0,0C193.7,176.7,188.4,176.3,185.1,171.9z"/>
				<path class="st1" d="M225.5,204.4l-36.7-29.3c-4.8-3.4-5.9-10.1-2.5-15l0,0c3.4-4.8,10.1-5.9,15-2.5l39.6,25.2
					c6.6,4.7,8.5,13.4,4.3,19.3l0,0C240.9,208.2,232.1,209.2,225.5,204.4L225.5,204.4z"/>
				<path class="st2" d="M141.6,172.9L141.6,172.9c7.9-4.6,18-2,22.6,5.8l32.5,55.1c4.6,7.9,2,18-5.8,22.6l0,0
					c-7.9,4.6-18,2-22.6-5.8l-32.5-55.1C131.2,187.7,133.8,177.5,141.6,172.9z"/>
				<path class="st2" d="M166.9,311.3l0.1-63.9c0-9.1,7.4-16.5,16.5-16.5l0,0c9.1,0,16.5,7.4,16.5,16.5l-0.1,63.9
					c0,9.1-7.4,16.5-16.5,16.5l0,0C174.3,327.8,166.9,320.4,166.9,311.3z"/>
				<path class="st2" d="M117.4,171L117.4,171c9.1,0,16.5,7.4,16.5,16.5v63.9c0,9.1-7.4,16.5-16.5,16.5h0c-9.1,0-16.5-7.4-16.5-16.5
					v-63.9C100.9,178.4,108.3,171,117.4,171z"/>
				<g>
					<g>
						<path class="st3" d="M211.6,329.9l-41.8-0.1c-1.5,0-2.6-1.2-2.6-2.6l0-8c0-8.5,7-15.5,15.5-15.4l6.3,0c4.2,0,9.9,3.2,11.2,7.6
							l0,0l11.3,7.2c1.9,1.2,3,3.2,3,5.4v3.1C214.4,328.7,213.1,329.9,211.6,329.9L211.6,329.9z"/>
						
							<rect x="188.9" y="310.2" transform="matrix(2.094442e-03 -1 1 2.094442e-03 -141.5205 521.9738)" class="st2" width="3.8" height="43.4"/>
					</g>
					<g>
						<path class="st3" d="M167.2,315.9l0-40.9l33,0.1l0,41.1c0,5.8-4.2,10.6-9.6,10.8c-4.2,0.1-9.2,0.1-13.5,0
							C171.5,326.9,167.2,322,167.2,315.9L167.2,315.9z"/>
						
							<rect x="187.4" y="283.1" transform="matrix(2.094442e-03 -1 1 2.094442e-03 -103.0105 484.1345)" class="st2" width="7.4" height="21.2"/>
						
							<rect x="187.3" y="272.6" transform="matrix(2.094442e-03 -1 1 2.094442e-03 -92.4784 473.6045)" class="st2" width="7.4" height="21.2"/>
						
							<rect x="187.1" y="294.1" transform="matrix(2.094442e-03 -1 1 2.094442e-03 -114.0536 495.1144)" class="st2" width="7.9" height="21.2"/>
					</g>
				</g>
				<path class="st2" d="M75.7,303.9l27.5-57.8c3.9-8.2,13.8-11.7,22-7.8l0,0c8.2,3.9,11.7,13.8,7.8,22l-27.5,57.8
					c-3.9,8.2-13.8,11.7-22,7.8l0,0C75.3,322,71.8,312.2,75.7,303.9z"/>
				<g>
					<path class="st1" d="M133.5,213.3L133.5,213.3c-17,0-34.5-4.3-36.1-15.3c-0.6-5.3-0.1-14.1,1.5-19.2l3.8-11.7l-5.3-24.3
						c0-17.2,14-31.2,31.2-31.2h9.8c17.2,0,31.2,14,31.2,31.2l-5.3,24.3l4.4,13.4C177.5,206.9,153.4,213.3,133.5,213.3L133.5,213.3z
						"/>
					<path class="st4" d="M97.1,141L97.1,141l-2.2-6.4c-4.2-10,2.2-19.7,11.4-20.3c0.3,0,0.5,0,0.8,0l8.8,0l0,0
						c-2.4,4.2-6.3,6.2-9.8,13.1C102.9,133.3,100.9,136.9,97.1,141L97.1,141z"/>
					<path class="st4" d="M168.2,135.8l1.6,5.1l2.3-6.1c4.4-9.4-2.3-18.6-11.9-19.2c-0.3,0-0.6,0-0.8,0l-7.8-1.1l1.6,0.5
						c3.4,2.4,6.3,5,7.7,6.8C166.1,128.3,166.4,130.1,168.2,135.8L168.2,135.8z"/>
					<rect x="97.4" y="162.5" class="st4" width="72.1" height="11"/>
					<rect x="127" y="159.9" class="st5" width="22" height="16.3"/>
				</g>
				<path class="st0" d="M219.8,169.3l21.5,13.9c6.6,4.8,8.4,13.6,4.1,19.6c-3.1,4.3-8.4,6-13.6,4.9c-2.1-0.4-4.2-1.3-6.1-2.7
					l-19.1-13.8L219.8,169.3z"/>
				<g>
					<g>
						<path class="st3" d="M107.4,339.7l-37.8-18c-1.3-0.6-1.9-2.2-1.2-3.5l3.4-7.2c3.7-7.7,12.9-11,20.6-7.3l5.7,2.7
							c3.8,1.8,7.5,7.1,6.9,11.6l0,0l7.1,11.4c1.2,1.9,1.3,4.2,0.3,6.2l-1.3,2.8C110.4,339.8,108.8,340.4,107.4,339.7L107.4,339.7z"
							/>
						
							<rect x="85.8" y="310.9" transform="matrix(0.4293 -0.9032 0.9032 0.4293 -250.3438 269.0795)" class="st2" width="3.8" height="43.4"/>
					</g>
					<g>
						<path class="st3" d="M73.3,307.8l18-38l29.8,14.2l-18.1,38.2c-2.6,5.4-8.5,8-13.4,5.9c-3.9-1.7-8.4-3.9-12.2-5.8
							C72.5,319.9,70.7,313.4,73.3,307.8L73.3,307.8z"/>
						
							<rect x="100.6" y="288.8" transform="matrix(0.4293 -0.9032 0.9032 0.4293 -210.8207 265.1227)" class="st2" width="7.4" height="21.2"/>
						
							<rect x="105.2" y="279.3" transform="matrix(0.4293 -0.9032 0.9032 0.4293 -199.6482 263.7649)" class="st2" width="7.4" height="21.2"/>
						
							<rect x="95.6" y="297.6" transform="matrix(0.4293 -0.9032 0.9032 0.4293 -221.469 265.8262)" class="st2" width="7.9" height="21.2"/>
					</g>
				</g>
				
					<ellipse transform="matrix(0.9879 -0.1551 0.1551 0.9879 -35.3554 32.8336)" class="st4" cx="192.8" cy="243.1" rx="9.2" ry="14.5"/>
				
					<ellipse transform="matrix(0.199 -0.98 0.98 0.199 -151.4719 325.595)" class="st4" cx="123.4" cy="255.5" rx="15.4" ry="11.5"/>
			</g>
			<rect class="st6" width="275.9" height="343.7"/>
			<polygon class="st4" points="157.6,115.7 114.8,115.7 112.3,107.3 159.6,107.3 			"/>
		</g>
	</g>
</g>
</svg>
