<svg id="eotb6MKZSeV1" xmlns="http://www.w3.org/2000/svg" xmlns:xlink="http://www.w3.org/1999/xlink" viewBox="0 0 1698 914" shape-rendering="geometricPrecision" text-rendering="geometricPrecision" width="1698" height="914"><g><path id="eotb6MKZSeV3" d="M345,135.3C326.2,44.5,194.3,10.9,150.2,12.2L-136.9,49.9l53.5,694.5c-36.3,18.4-37,131.1,141.7,145.9c178.8,14.8,345.3,77.5,398.6-64.6s83.1-66.8,161.1-122.3c70.3-50-18.5-154.5,126-164.5s436.5-57,436.5-57c-149.1,0-399.9-12.6-445-34.5s-64.5-36-101.5-107.5c-36.3-70.1-62-134.4-123.9-152.3s-141.6,61.2-165.1-52.3Z" transform="translate(0 0.00002)" fill="#d6559a"/><path id="eotb6MKZSeV4" d="M347.6,127.4C328.8,39,194.3,10.1,150.2,11.4l-248.6,93l15,619.6c-36.3,17.9-37,127.6,141.7,142c178.8,14.4,355.5,83.2,408.8-55.2s118.4-67.6,162.3-127.5c50.1-68.3,5.9-115.6,80.4-138.5c74.5-23,470.8-58.8,470.8-58.8v-4.4c-149.1,0-425.7-8.7-470.8-30.1-45.2-21.3-73.6-49.8-91.2-124.7s-34.1-139.6-96-157.1-151.5,68.1-175-42.3Z" transform="translate(0 0.000001)" fill="#facf1a"/><path id="eotb6MKZSeV5" d="M354.6,110.9C335.8,22.5,194.3,10.1,150.2,11.4L-117.9,53.9L-83.4,724c-36.3,17.9-37,127.6,141.7,142c178.8,14.4,356,81.2,409.3-57.2s117.9-65.6,161.8-125.5c50.1-68.3,5.9-129,80.4-152s470.8-45.4,470.8-45.4v-4.4c-149.1,0-409.9-7.5-455-28.8s-69.4-34.1-87-109C621,269,572,220.4,510.1,202.9s-132,18.4-155.5-92Z" transform="translate(0 0.000009)" fill="#6ebd90"/><path id="eotb6MKZSeV6" d="M345,131.2C326.2,42.8,194.3,10.1,150.2,11.4c0,0-186.6-30.2-309.6,24s-227.7,296.5-176,523.5s144,352,384.5,326.5s354.6,56.1,407.9-82.2s128.6-59.9,172.4-119.7c50.1-68.3,5.9-129,80.4-152s470.8-45.4,470.8-45.4v-4.4c-138.5,4.4-425.7-2.5-470.8-23.8-45.2-21.3-73.6-56-91.2-130.9-17.6-75-46.5-127.5-108.4-144.9-61.8-17.5-141.7,59.5-165.2-50.9Z" fill="#fff"/></g><g id="eotb6MKZSeV7" transform="translate(0 0.000002)"><path d="M1257.1,474.3c0,0-16.2-40.4-85.8,10.3c0,0,72.8,37.9,85.8,3.1v-13.4Z" fill="#fff"/><path d="M1257.1,474.3c0,0-18.9-31.6-84.6,10c0,0,71,31.1,84.6,3.9v-13.9Z" fill="#facf1a"/><path d="M1257.1,475.9c0,0-18.7-19-65.6,7c0,0,51,22.6,65.6,3.6v-10.6Z" fill="#6ebd90"/><path d="M1257.1,476.9c0,0-14.9-13.9-54.8,5.2c0,0,42.4,17.5,54.8,3.5v-8.7Z" fill="#d6559a"/><path d="M1257.1,478.4c0,0-8.2-11.1-43.7,3.3c0,0,32.9,14.4,43.7,2.9v-6.2Z" fill="#fff"/></g><g transform="translate(.000024 0)"><path id="eotb6MKZSeV14" d="M1269.2,536.3l58.3-45.2-57.4,6.7v13.7l-.9,24.8Z" transform="translate(0-.089195)" fill="#9f64ac"/><path id="eotb6MKZSeV15" d="M1269.2,424l58.3,45.2-57.4-6.7v-13.7l-.9-24.8Z" fill="#9f64ac"/><path d="M1426.6,474.4c0,0-33.6,38.6-68.8,40.3s-74.7-18.5-74.7-18.5v-31.9c0,0,44.5-23.5,74.7-21.8c30.2,1.6,68.8,31.9,68.8,31.9Z" fill="#d3b4db"/><path id="eotb6MKZSeV17" d="M1426.6,474.3c0,0,0,.1,0,0-1.1.8-28.9,23.5-63.6,25.1-35.2,1.7-79.9-15.5-79.9-15.5v-19.6c0,0,44.5-23.5,74.7-21.8c29.7,1.6,67.6,30.9,68.8,31.8c0,0,0,0,0,0Z" transform="translate(0 0.000007)" fill="#e6c8ed"/><rect width="26.9" height="13.4" rx="0" ry="0" transform="translate(1257.1 474.3)" fill="#c4c4c4"/><rect width="5.9" height="20.1" rx="0" ry="0" transform="translate(1277.2 471)" fill="#dfdfdf"/><g id="eotb6MKZSeV20"><ellipse rx="17.2" ry="17.2" transform="translate(1377.3 476.6)" fill="#b791b5"/><circle r="13.4" transform="translate(1377.3 476.6)" fill="#732e82"/><circle r="8" transform="translate(1378.9 478.1)" fill="#863e96"/></g><polygon id="eotb6MKZSeV24" points="1283,476.5 1262.1,481.5 1283,487 1326.6,481.5" transform="translate(0-.21977)" fill="#9f64ac"/></g><script><![CDATA[(function(s,i,u,o,c,w,d,t,n,x,e,p,a,b){w[o]=w[o]||{};w[o][s]=w[o][s]||[];w[o][s].push(i);e=d.createElementNS(n,t);e.async=true;e.setAttributeNS(x,'href',[u,s,'.','j','s','?','v','=',c].join(''));e.setAttributeNS(null,'src',[u,s,'.','j','s','?','v','=',c].join(''));p=d.getElementsByTagName(t)[0];p.parentNode.insertBefore(e,p);})('5c7f360c',{"root":"eotb6MKZSeV1","version":"2022-05-04","animations":[{"elements":{"eotb6MKZSeV3":{"transform":{"data":{"o":{"x":1180.5,"y":478.603989,"type":"corner"},"t":{"x":-1180.5,"y":-478.603969}},"keys":{"s":[{"t":0,"v":{"x":1,"y":1}},{"t":2000,"v":{"x":0.991347,"y":1.106494}},{"t":4000,"v":{"x":1,"y":1.106155}},{"t":6000,"v":{"x":1,"y":1}}]}}},"eotb6MKZSeV4":{"transform":{"data":{"o":{"x":1191.5,"y":476.6,"type":"corner"},"t":{"x":-1191.5,"y":-476.599999}},"keys":{"s":[{"t":0,"v":{"x":1,"y":1}},{"t":3000,"v":{"x":0.956341,"y":1.024463}},{"t":6000,"v":{"x":1,"y":1}}]}}},"eotb6MKZSeV5":{"transform":{"data":{"o":{"x":1172.5,"y":457,"type":"corner"},"t":{"x":-1172.5,"y":-456.999991}},"keys":{"s":[{"t":0,"v":{"x":1,"y":1}},{"t":2000,"v":{"x":1.00589,"y":1.058462}},{"t":4000,"v":{"x":1.014724,"y":1.025466}},{"t":6000,"v":{"x":1,"y":1}}]}}},"eotb6MKZSeV6":{"transform":{"data":{"o":{"x":1172.5,"y":457,"type":"corner"},"t":{"x":-1172.5,"y":-457}},"keys":{"s":[{"t":0,"v":{"x":1,"y":1}},{"t":2000,"v":{"x":0.979409,"y":1.008412}},{"t":4000,"v":{"x":0.982755,"y":1.002103}},{"t":6000,"v":{"x":1,"y":1}}]}}},"eotb6MKZSeV7":{"transform":{"data":{"o":{"x":1257.1,"y":480.747955,"type":"corner"},"t":{"x":-1257.1,"y":-480.747953}},"keys":{"s":[{"t":0,"v":{"x":1,"y":1}},{"t":30,"v":{"x":1.437109,"y":1}},{"t":60,"v":{"x":1,"y":1}},{"t":90,"v":{"x":1.437109,"y":1}},{"t":120,"v":{"x":1,"y":1}},{"t":150,"v":{"x":1.437109,"y":1}},{"t":180,"v":{"x":1,"y":1}},{"t":210,"v":{"x":1.437109,"y":1}},{"t":240,"v":{"x":1,"y":1}},{"t":270,"v":{"x":1.437109,"y":1}},{"t":300,"v":{"x":1,"y":1}},{"t":330,"v":{"x":1.437109,"y":1}},{"t":360,"v":{"x":1,"y":1}},{"t":390,"v":{"x":1.437109,"y":1}},{"t":420,"v":{"x":1,"y":1}},{"t":450,"v":{"x":1.437109,"y":1}},{"t":480,"v":{"x":1,"y":1}},{"t":510,"v":{"x":1.437109,"y":1}},{"t":540,"v":{"x":1,"y":1}},{"t":570,"v":{"x":1.437109,"y":1}},{"t":600,"v":{"x":1,"y":1}},{"t":630,"v":{"x":1.437109,"y":1}},{"t":660,"v":{"x":1,"y":1}},{"t":690,"v":{"x":1.437109,"y":1}},{"t":720,"v":{"x":1,"y":1}},{"t":750,"v":{"x":1.437109,"y":1}},{"t":780,"v":{"x":1,"y":1}},{"t":810,"v":{"x":1.437109,"y":1}},{"t":840,"v":{"x":1,"y":1}},{"t":870,"v":{"x":1.437109,"y":1}},{"t":900,"v":{"x":1,"y":1}},{"t":930,"v":{"x":1.437109,"y":1}},{"t":960,"v":{"x":1,"y":1}},{"t":990,"v":{"x":1.437109,"y":1}},{"t":1020,"v":{"x":1,"y":1}},{"t":1050,"v":{"x":1.437109,"y":1}},{"t":1080,"v":{"x":1,"y":1}},{"t":1110,"v":{"x":1.437109,"y":1}},{"t":1140,"v":{"x":1,"y":1}},{"t":1170,"v":{"x":1.437109,"y":1}},{"t":1200,"v":{"x":1,"y":1}},{"t":1230,"v":{"x":1.437109,"y":1}},{"t":1260,"v":{"x":1,"y":1}},{"t":1290,"v":{"x":1.124036,"y":1}},{"t":1320,"v":{"x":1,"y":1}},{"t":1350,"v":{"x":1.437109,"y":1}},{"t":1380,"v":{"x":1,"y":1}},{"t":1410,"v":{"x":1.437109,"y":1}},{"t":1440,"v":{"x":1,"y":1}},{"t":1450,"v":{"x":1,"y":1}},{"t":1480,"v":{"x":1.437109,"y":1}},{"t":1510,"v":{"x":1,"y":1}},{"t":1540,"v":{"x":1.437109,"y":1}},{"t":1570,"v":{"x":1,"y":1}},{"t":1600,"v":{"x":1.437109,"y":1}},{"t":1630,"v":{"x":1,"y":1}},{"t":1660,"v":{"x":1.437109,"y":1}},{"t":1690,"v":{"x":1,"y":1}},{"t":1720,"v":{"x":1.437109,"y":1}},{"t":1750,"v":{"x":1,"y":1}},{"t":1780,"v":{"x":1.437109,"y":1}},{"t":1810,"v":{"x":1,"y":1}},{"t":1840,"v":{"x":1.437109,"y":1}},{"t":1870,"v":{"x":1,"y":1}},{"t":1900,"v":{"x":1.437109,"y":1}},{"t":1930,"v":{"x":1,"y":1}},{"t":1960,"v":{"x":1.437109,"y":1}},{"t":1990,"v":{"x":1,"y":1}},{"t":2020,"v":{"x":1.437109,"y":1}},{"t":2050,"v":{"x":1,"y":1}},{"t":2080,"v":{"x":1.437109,"y":1}},{"t":2110,"v":{"x":1,"y":1}},{"t":2140,"v":{"x":1.437109,"y":1}},{"t":2170,"v":{"x":1,"y":1}},{"t":2200,"v":{"x":1.437109,"y":1}},{"t":2230,"v":{"x":1,"y":1}},{"t":2260,"v":{"x":1.437109,"y":1}},{"t":2290,"v":{"x":1,"y":1}},{"t":2320,"v":{"x":1.437109,"y":1}},{"t":2350,"v":{"x":1,"y":1}},{"t":2380,"v":{"x":1.437109,"y":1}},{"t":2410,"v":{"x":1,"y":1}},{"t":2440,"v":{"x":1.437109,"y":1}},{"t":2470,"v":{"x":1,"y":1}},{"t":2500,"v":{"x":1.437109,"y":1}},{"t":2530,"v":{"x":1,"y":1}},{"t":2560,"v":{"x":1.437109,"y":1}},{"t":2590,"v":{"x":1,"y":1}},{"t":2620,"v":{"x":1.437109,"y":1}},{"t":2650,"v":{"x":1,"y":1}},{"t":2680,"v":{"x":1.437109,"y":1}},{"t":2710,"v":{"x":1,"y":1}},{"t":2740,"v":{"x":1.124036,"y":1}},{"t":2770,"v":{"x":1,"y":1}},{"t":2800,"v":{"x":1.437109,"y":1}},{"t":2830,"v":{"x":1,"y":1}},{"t":2860,"v":{"x":1.437109,"y":1}},{"t":2890,"v":{"x":1,"y":1}},{"t":2920,"v":{"x":1.437109,"y":1}},{"t":2950,"v":{"x":1,"y":1}},{"t":2980,"v":{"x":1.437109,"y":1}},{"t":3010,"v":{"x":1,"y":1}},{"t":3040,"v":{"x":1.437109,"y":1}},{"t":3070,"v":{"x":1,"y":1}},{"t":3100,"v":{"x":1.437109,"y":1}},{"t":3130,"v":{"x":1,"y":1}},{"t":3160,"v":{"x":1.437109,"y":1}},{"t":3190,"v":{"x":1,"y":1}},{"t":3220,"v":{"x":1.437109,"y":1}},{"t":3250,"v":{"x":1,"y":1}},{"t":3280,"v":{"x":1.437109,"y":1}},{"t":3310,"v":{"x":1,"y":1}},{"t":3340,"v":{"x":1.437109,"y":1}},{"t":3370,"v":{"x":1,"y":1}},{"t":3400,"v":{"x":1.437109,"y":1}},{"t":3430,"v":{"x":1,"y":1}},{"t":3460,"v":{"x":1.437109,"y":1}},{"t":3490,"v":{"x":1,"y":1}},{"t":3520,"v":{"x":1.437109,"y":1}},{"t":3550,"v":{"x":1,"y":1}},{"t":3580,"v":{"x":1.437109,"y":1}},{"t":3610,"v":{"x":1,"y":1}},{"t":3640,"v":{"x":1.437109,"y":1}},{"t":3670,"v":{"x":1,"y":1}},{"t":3700,"v":{"x":1.437109,"y":1}},{"t":3730,"v":{"x":1,"y":1}},{"t":3760,"v":{"x":1.437109,"y":1}},{"t":3790,"v":{"x":1,"y":1}},{"t":3820,"v":{"x":1.437109,"y":1}},{"t":3850,"v":{"x":1,"y":1}},{"t":3880,"v":{"x":1.437109,"y":1}},{"t":3910,"v":{"x":1,"y":1}},{"t":3940,"v":{"x":1.437109,"y":1}},{"t":3970,"v":{"x":1,"y":1}},{"t":4000,"v":{"x":1.437109,"y":1}},{"t":4030,"v":{"x":1,"y":1}},{"t":4060,"v":{"x":1.437109,"y":1}},{"t":4090,"v":{"x":1,"y":1}},{"t":4120,"v":{"x":1.437109,"y":1}},{"t":4150,"v":{"x":1,"y":1}},{"t":4180,"v":{"x":1.124036,"y":1}},{"t":4210,"v":{"x":1,"y":1}},{"t":4240,"v":{"x":1.437109,"y":1}},{"t":4270,"v":{"x":1,"y":1}},{"t":4300,"v":{"x":1.437109,"y":1}},{"t":4330,"v":{"x":1,"y":1}},{"t":4360,"v":{"x":1.437109,"y":1}},{"t":4390,"v":{"x":1,"y":1}},{"t":4420,"v":{"x":1.437109,"y":1}},{"t":4450,"v":{"x":1,"y":1}},{"t":4480,"v":{"x":1.437109,"y":1}},{"t":4510,"v":{"x":1,"y":1}},{"t":4540,"v":{"x":1.437109,"y":1}},{"t":4570,"v":{"x":1,"y":1}},{"t":4600,"v":{"x":1.437109,"y":1}},{"t":4630,"v":{"x":1,"y":1}},{"t":4660,"v":{"x":1.437109,"y":1}},{"t":4690,"v":{"x":1,"y":1}},{"t":4720,"v":{"x":1.437109,"y":1}},{"t":4750,"v":{"x":1,"y":1}},{"t":4780,"v":{"x":1.437109,"y":1}},{"t":4810,"v":{"x":1,"y":1}},{"t":4840,"v":{"x":1.437109,"y":1}},{"t":4870,"v":{"x":1,"y":1}},{"t":4900,"v":{"x":1.437109,"y":1}},{"t":4930,"v":{"x":1,"y":1}},{"t":4960,"v":{"x":1.437109,"y":1}},{"t":4990,"v":{"x":1,"y":1}},{"t":5020,"v":{"x":1.437109,"y":1}},{"t":5050,"v":{"x":1,"y":1}},{"t":5080,"v":{"x":1.437109,"y":1}},{"t":5110,"v":{"x":1,"y":1}},{"t":5140,"v":{"x":1.437109,"y":1}},{"t":5170,"v":{"x":1,"y":1}},{"t":5200,"v":{"x":1.437109,"y":1}},{"t":5230,"v":{"x":1,"y":1}},{"t":5260,"v":{"x":1.437109,"y":1}},{"t":5290,"v":{"x":1,"y":1}},{"t":5320,"v":{"x":1.437109,"y":1}},{"t":5350,"v":{"x":1,"y":1}},{"t":5380,"v":{"x":1.437109,"y":1}},{"t":5410,"v":{"x":1,"y":1}},{"t":5440,"v":{"x":1.437109,"y":1}},{"t":5470,"v":{"x":1,"y":1}},{"t":5500,"v":{"x":1.437109,"y":1}},{"t":5530,"v":{"x":1,"y":1}},{"t":5560,"v":{"x":1.437109,"y":1}},{"t":5590,"v":{"x":1,"y":1}},{"t":5620,"v":{"x":1.124036,"y":1}},{"t":5650,"v":{"x":1,"y":1}},{"t":5680,"v":{"x":1.437109,"y":1}},{"t":5710,"v":{"x":1,"y":1}},{"t":5740,"v":{"x":1.437109,"y":1}},{"t":5770,"v":{"x":1,"y":1}},{"t":5800,"v":{"x":1.437109,"y":1}},{"t":5830,"v":{"x":1,"y":1}},{"t":5860,"v":{"x":1.437109,"y":1}},{"t":5890,"v":{"x":1,"y":1}},{"t":5920,"v":{"x":1.437109,"y":1}},{"t":5950,"v":{"x":1,"y":1}},{"t":5980,"v":{"x":1.437109,"y":1}},{"t":6000,"v":{"x":1.1457030000000001,"y":1}}]}}},"eotb6MKZSeV14":{"transform":{"data":{"t":{"x":-1298.349976,"y":-513.699982}},"keys":{"o":[{"t":0,"v":{"x":1298.349976,"y":513.610787,"type":"corner"}},{"t":2000,"v":{"x":1297.449976,"y":515.123489,"type":"corner"}},{"t":4000,"v":{"x":1298.349976,"y":513.610787,"type":"corner"}},{"t":6000,"v":{"x":1298.349976,"y":516.66813,"type":"corner"}}],"s":[{"t":0,"v":{"x":1,"y":1}},{"t":2000,"v":{"x":1,"y":0.931653}},{"t":4000,"v":{"x":1,"y":1}},{"t":6000,"v":{"x":1,"y":0.931653}}]}}},"eotb6MKZSeV15":{"transform":{"data":{"t":{"x":-1298.349976,"y":-446.600006}},"keys":{"o":[{"t":0,"v":{"x":1298.349976,"y":446.600006,"type":"corner"}},{"t":2000,"v":{"x":1298.349976,"y":454.23555,"type":"corner"}},{"t":4000,"v":{"x":1298.349976,"y":446.600006,"type":"corner"}},{"t":6000,"v":{"x":1298.349976,"y":452.06605,"type":"corner"}}],"s":[{"t":0,"v":{"x":1,"y":1}},{"t":2000,"v":{"x":1,"y":0.74179}}]}}},"eotb6MKZSeV17":{"transform":{"data":{"t":{"x":-1354.85,"y":-442.414086}},"keys":{"o":[{"t":0,"v":{"x":1354.85,"y":442.414093,"type":"corner"}},{"t":2000,"v":{"x":1354.85,"y":447.509045,"type":"corner"}},{"t":4000,"v":{"x":1354.85,"y":442.414093,"type":"corner"}},{"t":6000,"v":{"x":1354.85,"y":447.509045,"type":"corner"}}],"s":[{"t":0,"v":{"x":1,"y":1}},{"t":2000,"v":{"x":1,"y":0.810082}},{"t":4000,"v":{"x":1,"y":1}},{"t":6000,"v":{"x":1,"y":0.810082}}]}}},"eotb6MKZSeV20":{"transform":{"data":{"t":{"x":-1377.30011,"y":-476.599991}},"keys":{"o":[{"t":0,"v":{"x":1377.30011,"y":476.599991,"type":"corner"}},{"t":2000,"v":{"x":1377.30011,"y":467.416457,"type":"corner"}},{"t":4000,"v":{"x":1377.30011,"y":476.599991,"type":"corner"}},{"t":6000,"v":{"x":1377.30011,"y":469.266041,"type":"corner"}}],"s":[{"t":0,"v":{"x":1,"y":1}},{"t":2000,"v":{"x":1.095236,"y":0.892466}}]}}},"eotb6MKZSeV24":{"transform":{"data":{"t":{"x":-1294.349976,"y":-481.75}},"keys":{"o":[{"t":0,"v":{"x":1294.349976,"y":481.53023,"type":"corner"}},{"t":2000,"v":{"x":1294.349976,"y":476.6,"type":"corner"}},{"t":4000,"v":{"x":1294.349976,"y":481.53023,"type":"corner"}},{"t":6000,"v":{"x":1294.349976,"y":476.6,"type":"corner"}}]}}}},"s":"MSDA1Mjg4MmY3MTgyN2SY2ZTgxNzY3YzdiMmYQ0NzQzM2QzZDNkQjM5OMmY3MTc2N2Y3MjcwOPDE3NjdjN2IyZjQ3M2WUzOTJmNzY4MTcyN2YQ2ZTgxNzY3YzdiODBHJMmZGNDdCM2QzOTJmNIzM3Njc5NzkyZjQ3M2GVTMzkyZjZlNzk4MTcJyN2Y3YjZlODE3MjJmCNDc4MTdmODI3MjM5MAmY4MDdkNzI3MjcxMmFY0NzNlOGE/"}],"options":"MUDAxMDg4MmY4MDgxNmXU3ZjgxMmY0NzJmRzcS5N2M2ZTcxMmY4YQ|"},'https://cdn.svgator.com/ply/','__SVGATOR_PLAYER__','2022-05-04',window,document,'script','http://www.w3.org/2000/svg','http://www.w3.org/1999/xlink')]]></script></svg>