<?xml version="1.0" encoding="UTF-8"?><svg xmlns="http://www.w3.org/2000/svg" viewBox="0 0 624.1 359.34"><defs><style>.d{fill:#facf1a;}.e{fill:#6ebd90;}.f{fill:#9b3c8e;}.g{fill:#8f59a0;}.h{fill:#732e82;}.i{fill:#d6559a;}</style></defs><g id="a"/><g id="b"><g id="c"><g><g><path class="h" d="M296.71,24.59V59.67c-2.15,.61-4.32,1.23-6.49,1.86-39.57,11.46-75.12,25.43-102.79,39.67v-4.01c0-15.56,11.88-28.34,27.07-29.77v-13.57c0-7.89,3.2-15.02,8.37-20.17,5.17-5.17,12.3-8.37,20.19-8.37,.42,0,.85,.04,1.29,.06v-.77c0-13.59,11-24.59,24.57-24.59h3.22c13.59,0,24.59,11,24.59,24.59Z"/><path class="f" d="M225.9,129.4c2.91,10,33.49,10.13,70.82,.97v14.66h-.01c-38.2,9.73-72.54,13.76-95.23,11.88h-.02s-.01-.01-.02-.01c-8.41-5.28-14.01-14.62-14.01-25.29v-9.88c19.9-16.29,59.19-34.7,106.23-48.32,1.03-.3,2.04-.59,3.06-.89v14.62c-42.37,12.41-74,31.26-70.82,42.26Z"/><path class="h" d="M205.74,174.04c26.35-2.15,57.61-7.58,90.97-16.2v30.03c0,13.57-11,24.59-24.59,24.59h-3.22c-9.75,0-18.15-5.7-22.12-13.94h-9.29c-15.23,0-28.06-10.39-31.76-24.48Z"/><path class="h" d="M392.57,40.7c-23.54,2.43-50.48,7.3-79.04,14.51V24.59C313.54,11,324.55,0,338.12,0h3.24c13.57,0,24.59,11,24.59,24.59v.77c.42-.02,.85-.06,1.29-.06,11.01,0,20.6,6.25,25.34,15.39Z"/><path class="f" d="M422,89.96h0v.02c-.89,.78-1.82,1.57-2.79,2.36-.66,.52-1.33,1.06-2.03,1.6-.64,.5-1.31,1-1.99,1.51l-.06,.04c-.4,.29-.79,.59-1.2,.88-.29,.21-.58,.42-.88,.62-.63,.44-1.26,.89-1.91,1.33-.63,.43-1.28,.86-1.95,1.31-5.81,3.83-12.54,7.72-20.04,11.58-1.07,.56-2.15,1.11-3.25,1.65h-.01c-1.1,.56-2.22,1.1-3.35,1.65-2.45,1.18-4.98,2.36-7.56,3.52-2.21,1-4.47,2-6.77,2.98-1.25,.54-2.5,1.07-3.78,1.6-3.18,1.34-6.46,2.66-9.8,3.96-.84,.33-1.68,.65-2.53,.97-1.69,.64-3.4,1.29-5.13,1.92-.87,.32-1.74,.63-2.61,.95-.7,.25-1.4,.51-2.11,.76-.15,.06-.3,.11-.46,.16-.52,.19-1.05,.38-1.58,.57-.72,.25-1.44,.5-2.17,.75-.2,.07-.4,.13-.6,.2-.53,.18-1.06,.36-1.59,.54-1.42,.48-2.85,.96-4.29,1.43-2.94,.98-5.92,1.93-8.94,2.87-1.5,.47-3,.93-4.52,1.38-1.5,.46-3.02,.92-4.56,1.36v-14.69c40.59-12.37,70.41-30.51,67.31-41.21-2.8-9.65-31.56-10.09-67.31-1.8v-14.64c3.84-.95,7.63-1.84,11.37-2.68h0c4.68-1.04,9.27-1.98,13.78-2.85,.91-.17,1.82-.34,2.72-.5,8.95-1.64,17.52-2.91,25.56-3.81,2.42-.27,4.79-.51,7.1-.71,.78-.07,1.54-.13,2.31-.19,6.97-.55,13.47-.78,19.4-.7h0v10.78c12.76,1.21,23.17,10.39,26.2,22.53Z"/><path class="h" d="M422.86,110.9v20.67c0,12.01-7.06,22.32-17.25,27.09v7.02c0,18.13-14.71,32.82-32.82,32.82h-9.3c-3.95,8.24-12.38,13.94-22.12,13.94h-3.24c-13.57,0-24.59-11.02-24.59-24.59v-34.59c.99-.29,1.99-.57,3-.86,41.28-11.95,78.17-26.65,106.33-41.5Z"/><path class="d" d="M296.71,59.67v12.84c-1.01,.29-2.02,.59-3.05,.88-47.04,13.63-86.34,32.03-106.23,48.33v-20.52c27.68-14.23,63.22-28.21,102.79-39.67,2.17-.63,4.34-1.25,6.49-1.86Z"/><path class="d" d="M205.74,174.04c-43.44,3.59-73.54-1.73-77.75-16.27-4.3-14.84,19.35-35.99,59.43-56.56v20.52c-10.39,8.5-15.48,16.42-13.64,22.78,2,6.97,12.1,11.07,27.68,12.39,1.03,.66,2.12,1.25,3.22,1.77v7.02c0,2.89,.37,5.68,1.07,8.35Z"/><path class="d" d="M422.86,97.19v13.72c-28.15,14.86-65.04,29.55-106.33,41.5-1.01,.29-2,.57-3,.86v-12.85c49.03-14.23,89.61-33.67,108.46-50.46,.55,2.32,.86,4.74,.86,7.23Z"/><path class="i" d="M305.89,116.79c-13.89,4.02-26.6,5.62-34.09,4.67-.2-.02-.4-.05-.59-.08-.08-.02-.16-.03-.23-.04-3.39-.55-5.55-1.67-6.05-3.39-1.49-5.15,12.5-13.78,31.79-19.87,1.13-.35,2.28-.7,3.45-1.04,4.64-1.34,9.15-2.42,13.37-3.21,9.01-1.7,16.74-2.15,21.72-1.31,.05,.01,.11,.02,.17,.03,.2,.04,.4,.07,.59,.11,2.85,.59,4.66,1.66,5.11,3.22,1.58,5.45-14.2,14.81-35.24,20.91Z"/><path class="d" d="M422.86,110.91v-13.72c0-2.48-.31-4.91-.86-7.23,8.59-7.63,12.67-14.73,11-20.52-2.39-8.29-16.22-12.52-37.2-12.8v-2.8c0-4.74-1.16-9.21-3.22-13.15,47.94-5,81.72,.02,86.19,15.48,4.17,14.4-17.97,34.74-55.9,54.73Z"/><path class="e" d="M395.79,53.85v2.8c-21.46-.29-50.42,3.55-82.25,11.44v-12.87c28.56-7.21,55.5-12.08,79.04-14.51,2.06,3.94,3.22,8.4,3.22,13.15Z"/><path class="e" d="M296.71,145.02v12.82c-33.36,8.62-64.62,14.05-90.97,16.2-.7-2.67-1.07-5.46-1.07-8.35v-7.02c-1.1-.51-2.19-1.1-3.22-1.77,22.69,1.88,57.04-2.15,95.26-11.88Z"/></g><g><g><path class="g" d="M0,337.62l.13-73.95H7.95l-.12,67.21,41.41,.07v6.76l-49.24-.09Z"/><path class="g" d="M80.71,338.3c-4.72,0-8.84-.9-12.36-2.66-3.52-1.77-6.24-4.41-8.17-7.94-1.93-3.52-2.89-7.93-2.88-13.21l.06-32.22h7.5l-.06,31.39c-.01,5.92,1.44,10.38,4.36,13.37,2.92,3,7.02,4.5,12.3,4.51,3.87,0,7.24-.78,10.09-2.36,2.86-1.58,5.04-3.88,6.56-6.91,1.52-3.02,2.28-6.65,2.29-10.88l.05-29.05h7.5l-.1,55.48h-7.18l.03-15.23,1.16,2.75c-1.77,4.08-4.5,7.27-8.2,9.55-3.7,2.28-8.02,3.42-12.95,3.41Z"/><path class="g" d="M148.86,338.42c-5.28,0-10.02-1.21-14.2-3.62-4.19-2.4-7.47-5.73-9.86-10-2.39-4.27-3.58-9.18-3.57-14.74,.01-5.63,1.22-10.56,3.62-14.78,2.4-4.22,5.7-7.51,9.9-9.86,4.19-2.35,8.93-3.52,14.22-3.51,4.86,0,9.21,1.11,13.04,3.3,3.83,2.19,6.89,5.38,9.17,9.58,2.28,4.2,3.42,9.32,3.41,15.38-.01,5.99-1.15,11.09-3.41,15.31-2.26,4.22-5.31,7.44-9.16,9.65-3.84,2.21-8.23,3.31-13.16,3.3Zm.54-6.66c3.94,0,7.48-.88,10.62-2.68,3.14-1.79,5.61-4.32,7.41-7.59,1.8-3.27,2.71-7.06,2.71-11.35,0-4.37-.88-8.17-2.67-11.42-1.79-3.24-4.25-5.77-7.38-7.57-3.13-1.8-6.67-2.71-10.61-2.71-3.88,0-7.36,.89-10.46,2.68-3.1,1.79-5.57,4.31-7.41,7.54-1.84,3.24-2.76,7.04-2.77,11.41,0,4.3,.9,8.08,2.73,11.36,1.83,3.28,4.29,5.82,7.38,7.62,3.1,1.8,6.58,2.71,10.46,2.71Zm20.91,6.17l.03-16.69,.76-11.2-1.04-11.2,.07-39.3h7.5l-.14,78.4h-7.18Z"/><path class="g" d="M200.32,270.26c-1.55,0-2.85-.53-3.91-1.59s-1.58-2.33-1.58-3.81,.53-2.73,1.59-3.75c1.06-1.02,2.36-1.53,3.91-1.52,1.55,0,2.85,.5,3.91,1.49,1.06,.99,1.58,2.22,1.58,3.7,0,1.55-.52,2.85-1.54,3.91-1.02,1.05-2.34,1.58-3.96,1.58Zm-3.92,67.71l.1-55.46h7.5l-.1,55.48h-7.5Z"/><path class="g" d="M245.84,338.59c-5.49,0-10.4-1.23-14.73-3.67-4.33-2.44-7.72-5.79-10.18-10.05-2.46-4.26-3.68-9.15-3.67-14.64,0-5.56,1.25-10.46,3.72-14.68,2.47-4.22,5.88-7.53,10.21-9.91,4.34-2.39,9.25-3.58,14.74-3.57,4.72,0,8.98,.93,12.78,2.77,3.8,1.84,6.79,4.59,8.96,8.26l-5.61,3.79c-1.9-2.82-4.25-4.9-7.07-6.25-2.82-1.34-5.88-2.02-9.19-2.02-3.95,0-7.5,.88-10.67,2.68-3.17,1.79-5.68,4.3-7.51,7.54-1.84,3.24-2.76,7.04-2.77,11.41,0,4.37,.9,8.17,2.73,11.41,1.83,3.24,4.32,5.77,7.49,7.57,3.17,1.8,6.72,2.71,10.67,2.71,3.31,0,6.38-.66,9.2-1.99,2.82-1.33,5.18-3.37,7.09-6.11l5.59,3.81c-2.19,3.59-5.19,6.31-8.99,8.17-3.81,1.86-8.07,2.79-12.79,2.78Z"/></g><g><path class="h" d="M319.14,339.48c-6.08-.01-11.9-.84-17.47-2.47-5.57-1.64-10.05-3.76-13.44-6.37l5.99-13.23c3.25,2.32,7.1,4.23,11.55,5.72,4.45,1.49,8.95,2.24,13.51,2.25,3.47,0,6.27-.33,8.41-1.02,2.13-.68,3.71-1.64,4.73-2.87,1.01-1.23,1.52-2.64,1.53-4.23,0-2.02-.79-3.64-2.38-4.83-1.59-1.2-3.68-2.18-6.29-2.94-2.6-.76-5.48-1.49-8.62-2.19-3.14-.69-6.29-1.55-9.44-2.57-3.14-1.02-6.02-2.33-8.62-3.92-2.6-1.59-4.71-3.7-6.34-6.3-1.62-2.61-2.43-5.94-2.42-9.99,0-4.34,1.19-8.3,3.55-11.88,2.36-3.58,5.91-6.43,10.65-8.55,4.74-2.12,10.69-3.18,17.86-3.17,4.77,0,9.48,.58,14.1,1.71,4.63,1.13,8.71,2.82,12.25,5.07l-5.45,13.34c-3.54-2.03-7.08-3.54-10.63-4.52-3.54-.98-7.01-1.48-10.41-1.48-3.4,0-6.19,.39-8.36,1.18-2.17,.79-3.73,1.82-4.67,3.08-.94,1.27-1.42,2.73-1.42,4.39,0,1.95,.79,3.53,2.38,4.72,1.59,1.2,3.68,2.16,6.29,2.89,2.6,.73,5.48,1.46,8.62,2.19,3.15,.73,6.29,1.57,9.43,2.51,3.15,.95,6.02,2.22,8.62,3.81,2.6,1.6,4.71,3.7,6.34,6.3,1.62,2.61,2.43,5.9,2.42,9.88,0,4.27-1.21,8.17-3.6,11.71-2.39,3.54-5.96,6.39-10.7,8.55-4.74,2.16-10.73,3.24-17.96,3.22Z"/><path class="h" d="M362.18,359.31l.14-79.43,16.17,.03-.02,11.94-.36,17.36,1.05,17.25-.06,32.88-16.93-.03Zm34.54-20.12c-4.92,0-9.22-1.1-12.91-3.28-3.69-2.18-6.55-5.49-8.61-9.94-2.05-4.45-3.08-10.08-3.06-16.88,.01-6.87,1-12.51,2.96-16.92,1.96-4.41,4.79-7.7,8.48-9.86,3.69-2.16,8.11-3.24,13.24-3.23,5.5,0,10.43,1.27,14.8,3.77,4.37,2.5,7.84,6,10.4,10.49,2.56,4.49,3.83,9.77,3.82,15.85-.01,6.15-1.31,11.46-3.88,15.94-2.58,4.48-6.05,7.95-10.44,10.4-4.38,2.45-9.32,3.67-14.82,3.66Zm-2.91-13.89c2.82,0,5.33-.64,7.55-1.94,2.21-1.3,3.98-3.16,5.33-5.58,1.34-2.42,2.02-5.29,2.02-8.62,0-3.4-.66-6.29-1.99-8.68-1.33-2.39-3.1-4.24-5.31-5.54-2.21-1.31-4.72-1.96-7.54-1.97-2.82,0-5.36,.64-7.6,1.94-2.25,1.3-4.02,3.14-5.33,5.52-1.31,2.38-1.96,5.28-1.97,8.68,0,3.33,.64,6.2,1.94,8.63,1.3,2.43,3.07,4.29,5.31,5.6,2.24,1.31,4.77,1.96,7.59,1.97Z"/><path class="h" d="M454.12,339.29c-4.56,0-8.46-.79-11.71-2.35-3.25-1.56-5.74-3.68-7.48-6.36-1.73-2.68-2.59-5.68-2.59-9.01,0-3.47,.86-6.51,2.57-9.11,1.7-2.6,4.4-4.64,8.09-6.12,3.69-1.48,8.5-2.21,14.44-2.2l15.52,.03-.02,9.87-13.67-.02c-3.98,0-6.71,.64-8.2,1.94-1.49,1.3-2.23,2.93-2.23,4.88,0,2.17,.84,3.89,2.54,5.16,1.7,1.27,4.03,1.91,6.99,1.91,2.82,0,5.35-.66,7.6-1.99,2.25-1.33,3.88-3.3,4.89-5.91l2.59,7.82c-1.24,3.76-3.48,6.61-6.74,8.56s-7.46,2.92-12.59,2.91Zm17.8-.84l.02-11.39-1.08-2.5,.04-20.4c0-3.62-1.09-6.44-3.29-8.47-2.2-2.03-5.58-3.05-10.14-3.06-3.11,0-6.17,.48-9.17,1.45s-5.56,2.29-7.66,3.95l-6.06-11.84c3.19-2.24,7.02-3.97,11.51-5.19,4.49-1.22,9.05-1.83,13.68-1.82,8.9,.02,15.8,2.13,20.71,6.33,4.91,4.21,7.36,10.76,7.34,19.65l-.06,33.31-15.84-.03Z"/><path class="h" d="M531.71,339.43c-6.29-.01-11.9-1.31-16.81-3.88-4.92-2.58-8.76-6.15-11.54-10.71-2.78-4.56-4.16-9.74-4.15-15.52,0-5.86,1.41-11.05,4.2-15.56,2.79-4.52,6.65-8.05,11.58-10.61,4.92-2.56,10.53-3.83,16.83-3.82,6.15,.01,11.5,1.31,16.05,3.88,4.55,2.58,7.91,6.25,10.07,11.03l-13.14,7.03c-1.51-2.75-3.41-4.78-5.69-6.09-2.28-1.31-4.75-1.96-7.43-1.97-2.89,0-5.5,.64-7.82,1.94-2.32,1.3-4.15,3.14-5.49,5.52-1.34,2.38-2.02,5.28-2.02,8.68,0,3.4,.66,6.29,1.99,8.68,1.33,2.39,3.16,4.24,5.47,5.54,2.31,1.31,4.92,1.96,7.81,1.97,2.67,0,5.15-.62,7.44-1.89,2.28-1.26,4.18-3.3,5.71-6.12l13.12,7.19c-2.18,4.7-5.55,8.33-10.11,10.89-4.56,2.56-9.92,3.83-16.07,3.82Z"/><path class="h" d="M595.83,339.54c-6.66-.01-12.5-1.32-17.52-3.94-5.03-2.61-8.91-6.18-11.65-10.71-2.74-4.52-4.11-9.68-4.09-15.47,0-5.86,1.38-11.05,4.1-15.56,2.72-4.52,6.43-8.05,11.14-10.61,4.71-2.56,10.02-3.83,15.96-3.82,5.71,.01,10.87,1.23,15.46,3.66,4.59,2.43,8.22,5.91,10.89,10.44,2.67,4.53,4,9.94,3.99,16.23,0,.65-.04,1.39-.11,2.22-.07,.83-.15,1.61-.22,2.33l-47.42-.08,.02-9.87,38.52,.07-6.52,2.92c0-3.04-.61-5.68-1.83-7.92-1.23-2.24-2.92-4-5.09-5.27-2.17-1.27-4.7-1.91-7.59-1.91-2.89,0-5.44,.62-7.65,1.89-2.21,1.26-3.93,3.03-5.16,5.31-1.24,2.28-1.85,4.97-1.86,8.08v2.6c0,3.18,.69,5.99,2.1,8.41,1.41,2.43,3.39,4.27,5.96,5.54,2.56,1.27,5.58,1.91,9.06,1.92,3.11,0,5.84-.46,8.2-1.4,2.35-.94,4.51-2.34,6.46-4.22l8.99,9.78c-2.68,3.03-6.05,5.36-10.1,6.98-4.05,1.62-8.72,2.43-14,2.42Z"/></g></g></g></g></g></svg>