<?xml version="1.0" encoding="utf-8"?>
<!-- Generator: Adobe Illustrator 26.3.1, SVG Export Plug-In . SVG Version: 6.00 Build 0)  -->
<svg version="1.1" xmlns="http://www.w3.org/2000/svg" xmlns:xlink="http://www.w3.org/1999/xlink" x="0px" y="0px"
	 viewBox="0 0 254.1 111.5" style="enable-background:new 0 0 254.1 111.5;" xml:space="preserve">
<style type="text/css">
	.st0{fill:#FACF1A;}
	.st1{fill:#6EBD90;}
	.st2{fill:#D6559A;}
	.st3{fill:#FFFFFF;}
	.st4{fill:#9F64AC;}
	.st5{fill:#D3B4DB;}
	.st6{fill:#C4C4C4;}
	.st7{fill:#DFDFDF;}
	.st8{fill:#E6C8ED;}
	.st9{fill:#B791B5;}
	.st10{fill:#732E82;}
	.st11{fill:#863E96;}
</style>
<g id="fire">
	<g id="ezvlLrfgHkZ7_ts">
		<path class="st0" d="M84.1,49c0,0-18.8-33.4-84.1,8c0,0,70.6,32.9,84.1,5.9V49z"/>
		<path class="st1" d="M85.6,50.6c0,0-18.6-20.9-65.2,5c0,0,50.7,24.5,65.2,5.6V50.6z"/>
		<path class="st2" d="M85.6,51.6c0,0-14.8-15.8-54.5,3.2c0,0,42.1,19.4,54.5,5.5V51.6z"/>
		<path class="st3" d="M85.6,53.1c0,0-8.2-13-43.4,1.3c0,0,32.7,16.3,43.4,4.9V53.1z"/>
	</g>
</g>
<g id="wings">
	<path id="ef5hSXjYA0P14" class="st4" d="M97.7,111.5l57.9-44.9l-57,6.7v13.6L97.7,111.5z"/>
	<path id="ef5hSXjYA0P15" class="st4" d="M97.7,0l57.9,44.9l-57-6.7V24.6L97.7,0z"/>
</g>
<g id="body">
	<path class="st5" d="M254.1,50.1c0,0-33.4,38.4-68.4,40.1s-74.2-18.4-74.2-18.4V40c0,0,44.2-23.3,74.2-21.7S254.1,50.1,254.1,50.1z
		"/>
	<rect x="85.6" y="50" class="st6" width="26.7" height="13.3"/>
	<rect x="105.6" y="46.7" class="st7" width="5.9" height="20"/>
</g>
<g id="luz">
	<path id="ef5hSXjYA0P17" class="st8" d="M254.1,50L254.1,50c-1.1,0.8-28.7,23.4-63.2,24.9c-35,1.7-79.4-15.4-79.4-15.4V40
		c0,0,44.2-23.3,74.2-21.7C215.2,20,252.9,49.1,254.1,50z"/>
</g>
<g id="wing-center">
	<polygon id="ef5hSXjYA0P24" class="st4" points="111.4,52 90.6,56.9 111.4,62.4 154.7,56.9 	"/>
</g>
<g id="window">
	<g id="ef5hSXjYA0P20">
		<circle class="st9" cx="205.1" cy="52.3" r="17.1"/>
		<circle class="st10" cx="205.1" cy="52.3" r="13.3"/>
		<circle class="st11" cx="206.7" cy="53.8" r="7.9"/>
	</g>
</g>
</svg>
