<svg xmlns="http://www.w3.org/2000/svg" viewBox="0 0 254.1 111.53"><defs><style>.cls-1{fill:#9f64ac;}.cls-2{fill:#d3b4db;}.cls-3{fill:#e6c8ed;}.cls-4{fill:#c4c4c4;}.cls-5{fill:#dfdfdf;}.cls-6{fill:#b791b5;}.cls-7{fill:#732e82;}.cls-8{fill:#863e96;}.cls-9{fill:#facf1a;}.cls-10{fill:#6ebd90;}.cls-11{fill:#d6559a;}.cls-12{fill:#fff;}</style></defs><g id="Camada_2" data-name="Camada 2"><g id="Camada_1-2" data-name="Camada 1"><path id="ef5hSXjYA0P14" class="cls-1" d="M97.66,111.53,155.6,66.6l-57,6.66V86.88Z"/><path id="ef5hSXjYA0P15" class="cls-1" d="M97.66,0,155.6,44.92l-57-6.65V24.65Z"/><path class="cls-2" d="M254.1,50.09s-33.4,38.37-68.38,40.06-74.25-18.39-74.25-18.39V40.05S155.7,16.7,185.72,18.39s68.38,31.7,68.38,31.7Z"/><path id="ef5hSXjYA0P17" class="cls-3" d="M254.1,50h0c-1.09.8-28.72,23.36-63.21,24.95-35,1.69-79.42-15.4-79.42-15.4V40.05S155.7,16.7,185.72,18.39C215.24,20,252.91,49.1,254.1,50Z"/><rect class="cls-4" x="85.63" y="49.99" width="26.74" height="13.32"/><rect class="cls-5" x="105.61" y="46.71" width="5.86" height="19.98"/><g id="ef5hSXjYA0P20"><circle class="cls-6" cx="205.1" cy="52.28" r="17.1"/><circle class="cls-7" cx="205.1" cy="52.28" r="13.32"/><circle class="cls-8" cx="206.69" cy="53.77" r="7.95"/></g><polygon id="ef5hSXjYA0P24" class="cls-1" points="111.37 51.96 90.6 56.93 111.37 62.4 154.71 56.93 111.37 51.96"/><g id="ezvlLrfgHkZ7_ts" data-name="ezvlLrfgHkZ7 ts"><path class="cls-9" d="M84.08,49S65.3,15.62,0,57c0,0,70.57,32.91,84.08,5.88Z"/><path class="cls-10" d="M85.63,50.61s-18.58-20.88-65.2,5c0,0,50.69,24.46,65.2,5.58Z"/><path class="cls-11" d="M85.63,51.61S70.82,35.79,31.17,54.78c0,0,42.14,19.39,54.46,5.48Z"/><path class="cls-12" d="M85.63,53.1s-8.15-13-43.43,1.28c0,0,32.7,16.31,43.43,4.88V53.1Z"/></g></g></g></svg>