<svg xmlns="http://www.w3.org/2000/svg" viewBox="0 0 697.1 768"><defs><style>.cls-1{fill:#d6559a;}.cls-2{fill:#facf1a;}.cls-3{fill:#6ebd90;}.cls-4{fill:#fff;}</style></defs><g id="Camada_2" data-name="Camada 2"><g id="Camada_1-2" data-name="Camada 1"><path class="cls-1" d="M2,13.7S11.38,85,50.4,103s116-33.47,154.88,40C243.68,215.45,231.82,306,306.5,266.56c42-22.21,70.39-56.59,115.42,3.79,80.41,106.53,112.4,103.47,137.65,108,28.14,5,16.57,1.91,137.45,1.91v1.19s1.45,2.53-37,2.53c-36.83,0-78.24,2.12-114,10.07-47.57,10.54-80.37,18.26-119,84.37-59.8,102.36-118.3-30.45-150.08,61.27-4.9,14.13-5.19,17.89-11.49,57.39-10.08,41-51.12,89.07-146.4,50.89-54.47-21.82-107.14,54.21-117,103Z"/><path class="cls-2" d="M1.92,17.08s14.41,77.23,51.85,94.48S157.19,81,203.27,146s25.94,165.41,97.6,127.68c40.32-21.22,75.82-57.15,119,.56,86,106.53,102,97.19,131.84,101.89,27.12,4.27,29.22,4.21,145.2,4.21v4.86s6,1.86-53.34,2.22c-35.34.22-82.82,4.28-122.4,14.28-45.21,11.42-63.38,13.43-100.44,76.62-60,102.32-122.82-37.92-152.78,75.3-16.64,71.21-50.76,118.33-139,87-54.55-14-102.17,29.94-127.09,110.23Z"/><path class="cls-3" d="M2,10.7s3,97.51,43.26,114.64,105.19-58.82,154.43,25.89C239.53,219.76,228.83,314.16,306,276.69c43.4-21.09,66-57.21,112.49.11,91.44,110.88,133,98.53,165.6,104,29,4.88-11.87,1.82,113,1.82v4.92s.42.79-40.92.79c-38,0-79.11-6.75-116.1.79-49.12,10-75.83,11.06-121.91,83.79-62,97.86-126.24-23.9-151.2,73.88C244,624.49,213.61,667.34,121.45,635.17,64.13,606.42,12.24,688.78,2,735.08Z"/><path class="cls-4" d="M0,0S15.84,103.57,53.28,120.51s87.84-39.09,133.92,24.75S229.3,312.59,301,275.54c40.32-20.84,72.72-48.85,115.92,7.82,75.6,81.84,91.34,85.89,115.56,90.12,27,4.71,48.6,6.8,164.58,6.8v6.45s-35.52,1-71.15,2.37c-35.34.22-71.56,3.13-105.92,10.58-45.64,9.91-72.5,11.18-109.55,73.24-58,97.13-112.77-27.94-143.15,63.8-3,9.13-3.87,13.94-7.34,22.94-23.27,60.26-62.14,91.18-142.78,68.86C62.86,613.5,9.51,722.22,0,768Z"/></g></g></svg>