<svg id="eTipIDFc4E11" xmlns="http://www.w3.org/2000/svg" xmlns:xlink="http://www.w3.org/1999/xlink" viewBox="0 0 697.1 768" shape-rendering="geometricPrecision" text-rendering="geometricPrecision"><style><![CDATA[#eTipIDFc4E14_ts {animation: eTipIDFc4E14_ts__ts 10000ms linear infinite normal forwards}@keyframes eTipIDFc4E14_ts__ts { 0% {transform: translate(697.089805px,384px) scale(1,1)} 50% {transform: translate(697.089805px,384px) scale(1.03794,0.998266)} 100% {transform: translate(697.089805px,384px) scale(1,1)}} #eTipIDFc4E15_ts {animation: eTipIDFc4E15_ts__ts 10000ms linear infinite normal forwards}@keyframes eTipIDFc4E15_ts__ts { 0% {transform: translate(696.91px,384px) scale(1,1)} 40% {transform: translate(696.91px,384px) scale(1.019304,1.009212)} 64% {transform: translate(696.91px,384px) scale(1.011582,1.007952)} 100% {transform: translate(696.91px,384px) scale(1,1)}} #eTipIDFc4E16_ts {animation: eTipIDFc4E16_ts__ts 10000ms linear infinite normal forwards}@keyframes eTipIDFc4E16_ts__ts { 0% {transform: translate(697.1px,384px) scale(1,1)} 30% {transform: translate(697.1px,384px) scale(1.019505,1.010654)} 68% {transform: translate(697.1px,384px) scale(1.013932,1.028664)} 100% {transform: translate(697.1px,384px) scale(1,1)}}]]></style><g><g><g id="eTipIDFc4E14_ts" transform="translate(697.089805,384) scale(1,1)"><path d="M2,13.7c0,0,9.38,71.3,48.4,89.3s116-33.47,154.88,40c38.4,72.45,26.54,163,101.22,123.56c42-22.21,70.39-56.59,115.42,3.79c80.41,106.53,112.4,103.47,137.65,108c28.14,5,16.57,1.91,137.45,1.91v1.19c0,0,1.45,2.53-37,2.53-36.83,0-78.24,2.12-114,10.07-47.57,10.54-80.37,18.26-119,84.37-59.8,102.36-118.3-30.45-150.08,61.27-4.9,14.13-5.19,17.89-11.49,57.39-10.08,41-51.12,89.07-146.4,50.89-54.47-21.82-107.14,54.21-117,103Z" transform="translate(-697.089804,-384)" fill="#d6559a"/></g><g id="eTipIDFc4E15_ts" transform="translate(696.91,384) scale(1,1)"><path d="M1.92,17.08c0,0,14.41,77.23,51.85,94.48s103.42-30.56,149.5,34.44s25.94,165.41,97.6,127.68c40.32-21.22,75.82-57.15,119,.56c86,106.53,102,97.19,131.84,101.89c27.12,4.27,29.22,4.21,145.2,4.21v4.86c0,0,6,1.86-53.34,2.22-35.34.22-82.82,4.28-122.4,14.28-45.21,11.42-63.38,13.43-100.44,76.62-60,102.32-122.82-37.92-152.78,75.3-16.64,71.21-50.76,118.33-139,87-54.55-14-102.17,29.94-127.09,110.23Z" transform="translate(-696.91,-384)" fill="#facf1a"/></g><g id="eTipIDFc4E16_ts" transform="translate(697.1,384) scale(1,1)"><path d="M2,10.7c0,0,3,97.51,43.26,114.64s105.19-58.82,154.43,25.89C239.53,219.76,228.83,314.16,306,276.69c43.4-21.09,66-57.21,112.49.11c91.44,110.88,133,98.53,165.6,104c29,4.88-11.87,1.82,113,1.82v4.92c0,0,.42.79-40.92.79-38,0-79.11-6.75-116.1.79-49.12,10-75.83,11.06-121.91,83.79-62,97.86-126.24-23.9-151.2,73.88-22.96,77.7-53.35,120.55-145.51,88.38C64.13,606.42,12.24,688.78,2,735.08Z" transform="translate(-697.1,-384)" fill="#6ebd90"/></g><path d="M0,0C0,0,15.84,103.57,53.28,120.51s87.84-39.09,133.92,24.75s42.1,167.33,113.8,130.28c40.32-20.84,72.72-48.85,115.92,7.82c75.6,81.84,91.34,85.89,115.56,90.12c27,4.71,48.6,6.8,164.58,6.8v6.45c0,0-35.52,1-71.15,2.37-35.34.22-71.56,3.13-105.92,10.58-45.64,9.91-72.5,11.18-109.55,73.24-58,97.13-112.77-27.94-143.15,63.8-3,9.13-3.87,13.94-7.34,22.94-23.27,60.26-62.14,91.18-142.78,68.86C62.86,613.5,9.51,722.22,0,768Z" fill="#fff"/></g></g></svg>