<svg id="e53a8NzqxhI1" xmlns="http://www.w3.org/2000/svg" xmlns:xlink="http://www.w3.org/1999/xlink" viewBox="0 0 275.9 343.7" shape-rendering="geometricPrecision" text-rendering="geometricPrecision"><style><![CDATA[#e53a8NzqxhI2_tr {animation: e53a8NzqxhI2_tr__tr 1000ms linear 1 normal forwards}@keyframes e53a8NzqxhI2_tr__tr { 0% {transform: translate(159.6px,126.050003px) rotate(0deg)} 100% {transform: translate(159.6px,126.050003px) rotate(59.407163deg)}} #e53a8NzqxhI4_tr {animation: e53a8NzqxhI4_tr__tr 1000ms linear 1 normal forwards}@keyframes e53a8NzqxhI4_tr__tr { 0% {transform: translate(214.5px,120.397904px) rotate(0deg)} 100% {transform: translate(214.5px,120.397904px) rotate(-2.45692deg)}} #e53a8NzqxhI8_tr {animation: e53a8NzqxhI8_tr__tr 1000ms linear 1 normal forwards}@keyframes e53a8NzqxhI8_tr__tr { 0% {transform: translate(106.493581px,128.399997px) rotate(0deg)} 100% {transform: translate(106.493581px,128.399997px) rotate(-60.75064deg)}} #e53a8NzqxhI10_tr {animation: e53a8NzqxhI10_tr__tr 1000ms linear 1 normal forwards}@keyframes e53a8NzqxhI10_tr__tr { 0% {transform: translate(53.012875px,120.397904px) rotate(0deg)} 50% {transform: translate(53.012875px,120.397904px) rotate(20.739741deg)} 100% {transform: translate(53.012875px,120.397904px) rotate(30.172386deg)}} #e53a8NzqxhI25_to {animation: e53a8NzqxhI25_to__to 1000ms linear 1 normal forwards}@keyframes e53a8NzqxhI25_to__to { 0% {transform: translate(106.779964px,127.350002px)} 100% {transform: translate(101.846818px,127.350004px)}} #e53a8NzqxhI26_ts {animation: e53a8NzqxhI26_ts__ts 1000ms linear 1 normal forwards}@keyframes e53a8NzqxhI26_ts__ts { 0% {transform: translate(162.958704px,126.993091px) scale(1,1)} 100% {transform: translate(162.958704px,126.993091px) scale(1.08887,1)}} #e53a8NzqxhI28_to {animation: e53a8NzqxhI28_to__to 1000ms linear 1 normal forwards}@keyframes e53a8NzqxhI28_to__to { 0% {transform: translate(146.899994px,168.049995px)} 100% {transform: translate(137.949994px,168.049995px)}} #e53a8NzqxhI30_to {animation: e53a8NzqxhI30_to__to 1000ms linear 1 normal forwards}@keyframes e53a8NzqxhI30_to__to { 0% {transform: translate(136.550003px,110.75px)} 100% {transform: translate(135.273009px,110.284166px)}} #e53a8NzqxhI30_ts {animation: e53a8NzqxhI30_ts__ts 1000ms linear 1 normal forwards}@keyframes e53a8NzqxhI30_ts__ts { 0% {transform: scale(1,1)} 100% {transform: scale(1.145714,1.034739)}}]]></style><g id="e53a8NzqxhI2_tr" transform="translate(159.6,126.050003) rotate(0)"><g transform="translate(-159.599997,-126.050003)"><path d="M212.3,131.3l-44.9,6.6c-5.4.8-11.4-2.4-13.2-7.1v0c-1.9-4.7,1-9.2,6.4-10l44.9-6.6c5.4-.8,11.4,2.4,13.2,7.1v0c1.9,4.8-1,9.2-6.4,10Z" fill="#e0c3f8"/><g id="e53a8NzqxhI4_tr" transform="translate(214.5,120.397904) rotate(0)"><g transform="translate(-214.5,-120.397904)"><path d="M244.4,47.5l-7.2,14c-1.8.4-3.7-2.2-4.9-4-.6-.9-1.8-1.4-2.8-1.1-1.3.3-2,1.6-1.7,2.8c1,4.1,2.7,12.5,3.2,14.9l-2.2,4.5L252,87.5l13.5-21.9c.5-.9.2-2.1-.5-2.8-.9-.9-2.3-1-3.3-.4L255.9,67c-.1.1-1-1.1-.9-1.1l5.8-9.2c.8-1.4.4-3.2-.8-4.4v0c-1.5-1.3-3.7-1.3-5,.1l-7.4,8.9-.9-.6l3.5-8.5c.6-1.5,1-3.3-.3-4.5l-.6-.6c-1.2-1.3-4.1-1.1-4.9.4v0Z" fill="#bd94cb"/><path d="M250.5,89.5l-29.1,36.9c-3.4,4.8-10.1,6-14.9,2.6v0c-4.8-3.4-6-10.1-2.6-14.9l24.9-39.8c4.7-6.6,13.3-8.6,19.3-4.4v0c6,4.2,7.1,13,2.4,19.6v0Z" fill="#e0c3f8"/><path d="M215.3,95.5l13.8-21.6c4.8-6.6,13.5-8.4,19.5-4.2c4.3,3,6,8.3,5,13.5-.4,2.1-1.3,4.2-2.7,6.1l-13.7,19.2-21.9-13Z" fill="#bd94cb"/></g></g></g></g><g id="e53a8NzqxhI8_tr" transform="translate(106.493581,128.399997) rotate(0)"><g transform="translate(-106.493578,-128.399997)"><path d="M54.1,131.5l44.2,10.2c5.4,1.2,11.5-1.4,13.8-6v0c2.2-4.5-.3-9.2-5.6-10.4L62.3,115.1c-5.4-1.2-11.5,1.4-13.8,6v0c-2.2,4.5.3,9.2,5.6,10.4v0Z" fill="#e0c3f8"/><g id="e53a8NzqxhI10_tr" transform="translate(53.012875,120.397904) rotate(0)"><g transform="translate(-56.099997,-120.397903)"><path d="M30.6,43.9l7.6,13.8c1.8.3,3.7-2.3,4.8-4.1.6-1,1.7-1.4,2.8-1.2c1.3.3,2,1.5,1.8,2.8-.9,4.1-2.4,12.5-2.8,15l2.3,4.4-23,9.5L9.9,62.5c-.5-.9-.3-2.1.5-2.9.9-.9,2.3-1.1,3.3-.5l7.2,4.1c.1.1.2,0,.1-.1l-6.5-9.8c-.8-1.4-.5-3.2.7-4.4v0c1.4-1.3,3.7-1.3,5,0L28.6,57l.1-.1L25,48.6c-.6-1.5-1-3.2.1-4.5l.6-.6c1.2-1.3,4.1-1.1,4.9.4v0Z" fill="#bd94cb"/><path d="M22.8,83.8l23.9,40.4c2.7,5.3,9.2,7.3,14.5,4.6v0c5.3-2.7,7.3-9.2,4.6-14.5L46.3,71.5c-3.7-7.2-12-10.3-18.5-6.9v0c-6.6,3.4-8.8,11.9-5,19.2v0Z" fill="#e0c3f8"/><path d="M56.1,93.2L46.3,71.5c-3.7-7.2-12-10.3-18.5-6.9C23.1,67,20.7,72,21,77.3c.1,2.2.7,4.4,1.8,6.5l9.6,20.7L56.1,93.2v0Z" fill="#bd94cb"/></g></g></g></g><g transform="translate(.000002 0)"><path d="M141.6,172.9v0c7.9-4.6,18-2,22.6,5.8l32.5,55.1c4.6,7.9,2,18-5.8,22.6v0c-7.9,4.6-18,2-22.6-5.8l-32.5-55.1c-4.6-7.8-2-18,5.8-22.6Z" fill="#9b77ac"/></g><g><path d="M117.4,171v0c9.1,0,16.5,7.4,16.5,16.5v63.9c0,9.1-7.4,16.5-16.5,16.5v0c-9.1,0-16.5-7.4-16.5-16.5v-63.9c0-9.1,7.4-16.5,16.5-16.5Z" fill="#9b77ac"/></g><g><g><g><g><g><g><path d="M133.5,213.3v0c-17,0-34.5-4.3-36.1-15.3-.6-5.3-.1-14.1,1.5-19.2l3.8-11.7-5.3-24.3c0-17.2,14-31.2,31.2-31.2h9.8c17.2,0,31.2,14,31.2,31.2l-5.3,24.3l4.4,13.4c8.8,26.4-15.3,32.8-35.2,32.8v0Z" fill="#e0c3f8"/><g id="e53a8NzqxhI25_to" transform="translate(106.779964,127.350002)"><path d="M97.9,141v0l-2.8-6.4c-5.2-10,2.8-19.7,14-20.3.3,0,.7,0,1,0l7.3-.6v0c4.9,3.7,2.4,10.9-2,17.8-3.8,5.9-10.4,9.5-17.5,9.5v0Z" transform="translate(-106.779964,-127.350002)" fill="#b5a3c3"/></g><g id="e53a8NzqxhI26_ts" transform="translate(162.958704,126.993091) scale(1,1)"><path d="M167.3,135.6l1.9,5.4l2.8-6.4c5.2-10-2.8-19.7-14-20.3-.3,0-.7,0-1,0l-9.1-1.2l1.9.5c4,2.5,7.2,4.1,8.9,6c6,6.8,6.5,9.9,8.6,16v0Z" transform="translate(-163.245889,-126.993091)" fill="#b5a3c3"/></g><rect width="72.1" height="11" rx="0" ry="0" transform="translate(97.4 162.5)" fill="#b5a3c3"/><g id="e53a8NzqxhI28_to" transform="translate(146.899994,168.049995)"><rect width="22" height="16.3" rx="0" ry="0" transform="translate(-10.999994,-8.149995)" fill="none" stroke="#9b77ac" stroke-width="6" stroke-miterlimit="10"/></g></g></g><rect width="275.9" height="343.7" rx="0" ry="0" fill="none"/><g id="e53a8NzqxhI30_to" transform="translate(136.550003,110.75)"><g id="e53a8NzqxhI30_ts" transform="scale(1,1)"><polygon points="157.7,114.2 115.9,114.2 113.5,107.3 159.6,107.3" transform="translate(-136.483624,-107.3)" fill="#b5a3c3"/></g></g></g></g></g></g><g transform="translate(.000011 0.000001)"><path d="M75.7,303.9l27.5-57.8c3.9-8.2,13.8-11.7,22-7.8v0c8.2,3.9,11.7,13.8,7.8,22l-27.5,57.8c-3.9,8.2-13.8,11.7-22,7.8v0c-8.2-3.9-11.7-13.7-7.8-22Z" fill="#9b77ac"/><g><g><path d="M107.4,339.7l-37.8-18c-1.3-.6-1.9-2.2-1.2-3.5l3.4-7.2c3.7-7.7,12.9-11,20.6-7.3l5.7,2.7c3.8,1.8,7.5,7.1,6.9,11.6v0l7.1,11.4c1.2,1.9,1.3,4.2.3,6.2l-1.3,2.8c-.7,1.4-2.3,2-3.7,1.3v0Z" fill="#8d559b"/><rect width="3.8" height="43.4" rx="0" ry="0" transform="matrix(.4293-.9032 0.9032 0.4293 67.294704 325.053791)" fill="#9b77ac"/></g><g><path d="M73.3,307.8l18-38L121.1,284L103,322.2c-2.6,5.4-8.5,8-13.4,5.9-3.9-1.7-8.4-3.9-12.2-5.8-4.9-2.4-6.7-8.9-4.1-14.5v0Z" fill="#8d559b"/><rect width="7.4" height="21.2" rx="0" ry="0" transform="matrix(.4293-.9032 0.9032 0.4293 93.210629 298.242909)" fill="#9b77ac"/><rect width="7.4" height="21.2" rx="0" ry="0" transform="matrix(.4293-.9032 0.9032 0.4293 97.778012 288.651842)" fill="#9b77ac"/><rect width="7.9" height="21.2" rx="0" ry="0" transform="matrix(.4293-.9032 0.9032 0.4293 88.364287 307.239746)" fill="#9b77ac"/></g></g><ellipse rx="15.4" ry="11.5" transform="matrix(.199-.98 0.98 0.199 123.474462 255.507535)" fill="#b5a3c3"/></g><g><path d="M166.9,311.3l.1-63.9c0-9.1,7.4-16.5,16.5-16.5v0c9.1,0,16.5,7.4,16.5,16.5l-.1,63.9c0,9.1-7.4,16.5-16.5,16.5v0c-9.1,0-16.5-7.4-16.5-16.5Z" fill="#9b77ac"/><g><g><path d="M211.6,329.9l-41.8-.1c-1.5,0-2.6-1.2-2.6-2.6v-8c0-8.5,7-15.5,15.5-15.4h6.3c4.2,0,9.9,3.2,11.2,7.6v0l11.3,7.2c1.9,1.2,3,3.2,3,5.4v3.1c-.1,1.6-1.4,2.8-2.9,2.8v0Z" fill="#8d559b"/><rect width="3.8" height="43.4" rx="0" ry="0" transform="matrix(.002094-1 1 0.002094 169.075496 333.723594)" fill="#9b77ac"/></g><g><path d="M167.2,315.9v-40.9l33,.1v41.1c0,5.8-4.2,10.6-9.6,10.8-4.2.1-9.2.1-13.5,0-5.6-.1-9.9-5-9.9-11.1v0Z" fill="#8d559b"/><rect width="7.4" height="21.2" rx="0" ry="0" transform="matrix(.002094-1 1 0.002094 180.48236 297.326846)" fill="#9b77ac"/><rect width="7.4" height="21.2" rx="0" ry="0" transform="matrix(.002094-1 1 0.002094 180.513753 286.874859)" fill="#9b77ac"/><rect width="7.9" height="21.2" rx="0" ry="0" transform="matrix(.002094-1 1 0.002094 180.43773 308.62988)" fill="#9b77ac"/></g></g><ellipse rx="9.2" ry="14.5" transform="matrix(.9879-.1551 0.1551 0.9879 192.816482 243.088766)" fill="#b5a3c3"/></g></svg>