<?xml version="1.0" encoding="UTF-8"?><svg xmlns="http://www.w3.org/2000/svg" viewBox="0 0 275.94 343.68"><defs><style>.d{fill:#e0c3f8;}.e{stroke:#9b77ac;stroke-miterlimit:10;stroke-width:6px;}.e,.f{fill:none;}.g{fill:#8d559b;}.h{fill:#bd94cb;}.i{fill:#b5a3c3;}.j{fill:#9b77ac;}.k{fill:#c4c4c4;}</style></defs><g id="a"/><g id="b"><g id="c"><g><circle class="k" cx="136.64" cy="59.84" r="48.13"/><g><ellipse class="j" cx="138.39" cy="69.38" rx="28.17" ry="31.98"/><rect class="j" x="131.31" y="97.52" width="14.15" height="10.7"/><ellipse class="j" cx="110.22" cy="72.81" rx="6.08" ry="9.17" transform="translate(-18.1 41.44) rotate(-19.71)"/><ellipse class="j" cx="162.84" cy="72.81" rx="9.17" ry="6.08" transform="translate(40.38 202.51) rotate(-70.74)"/></g><g><path class="h" d="M30.62,37.32l7.59,13.8c1.79,.33,3.68-2.28,4.75-4.08,.57-.96,1.71-1.44,2.79-1.2,1.28,.29,2.05,1.51,1.77,2.78-.91,4.13-2.4,12.54-2.83,14.99l2.3,4.43-23,9.46-14.1-21.57c-.48-.93-.3-2.07,.46-2.86,.88-.92,2.29-1.11,3.33-.45l7.19,4.1c.07,.06,.18-.03,.13-.11l-6.53-9.81c-.81-1.41-.51-3.21,.73-4.38h0c1.43-1.35,3.66-1.35,4.98,0l8.42,8.14,.11-.07-3.74-8.45c-.64-1.54-1.05-3.24,.15-4.49l.56-.59c1.23-1.29,4.14-1.15,4.92,.37Z"/><path class="h" d="M244.45,40.95l-7.24,13.99c-1.78,.37-3.74-2.19-4.86-3.96-.59-.94-1.75-1.4-2.82-1.13-1.27,.32-2.01,1.56-1.7,2.82,1.02,4.11,2.72,12.48,3.21,14.92l-2.19,4.49,23.24,8.87,13.55-21.92c.46-.94,.25-2.08-.53-2.85-.9-.9-2.32-1.05-3.34-.36l-5.8,4.55c-.07,.06-1-1.05-.95-1.13l5.8-9.22c.77-1.43,.43-3.22-.84-4.36h0c-1.46-1.31-3.7-1.26-4.97,.12l-7.4,8.85-.92-.56,3.52-8.55c.6-1.55,.97-3.26-.27-4.49l-.58-.57c-1.27-1.26-4.16-1.04-4.91,.49Z"/><path class="d" d="M54.14,124.96l44.19,10.18c5.36,1.23,11.52-1.44,13.77-5.98h0c2.25-4.54-.27-9.22-5.63-10.45l-44.19-10.18c-5.36-1.23-11.52,1.44-13.77,5.98h0c-2.25,4.54,.27,9.22,5.63,10.45Z"/><path class="d" d="M22.75,77.19l23.86,40.45c2.73,5.26,9.21,7.3,14.47,4.57h0c5.26-2.73,7.3-9.21,4.57-14.47l-19.39-42.77c-3.74-7.2-12.04-10.3-18.53-6.93h0c-6.49,3.37-8.72,11.94-4.98,19.14Z"/><path class="h" d="M56.1,86.68l-9.84-21.71c-3.74-7.19-12.04-10.3-18.53-6.93-4.6,2.39-7.06,7.4-6.76,12.68,.12,2.16,.7,4.37,1.79,6.46l9.61,20.68,23.74-11.18Z"/><path class="d" d="M212.3,124.78l-44.86,6.61c-5.44,.8-11.37-2.36-13.24-7.06h0c-1.88-4.7,1.01-9.17,6.45-9.97l44.86-6.61c5.44-.8,11.37,2.36,13.24,7.06h0c1.88,4.7-1.01,9.17-6.45,9.97Z"/><path class="d" d="M250.48,82.97l-29.07,36.88c-3.41,4.84-10.11,6-14.95,2.59h0c-4.84-3.41-6-10.11-2.59-14.95l24.95-39.78c4.67-6.63,13.31-8.59,19.29-4.38h0c5.98,4.21,7.04,13.01,2.37,19.64Z"/><rect class="j" x="149.75" y="159.64" width="33.01" height="96.95" rx="16.5" ry="16.5" transform="translate(-82.62 113.18) rotate(-30.5)"/><rect class="j" x="135.04" y="256.32" width="96.95" height="33.01" rx="16.5" ry="16.5" transform="translate(-89.69 455.77) rotate(-89.88)"/><rect class="j" x="100.87" y="164.45" width="33.01" height="96.95" rx="16.5" ry="16.5"/><g><g><path class="g" d="M211.57,323.38l-41.83-.09c-1.46,0-2.63-1.19-2.63-2.64l.02-7.98c.03-8.55,6.97-15.45,15.52-15.44l6.27,.02c4.17,0,9.85,3.22,11.23,7.57h0l11.28,7.25c1.85,1.19,2.96,3.24,2.96,5.43v3.06c0,1.55-1.27,2.81-2.82,2.8Z"/><rect class="j" x="188.87" y="303.61" width="3.8" height="43.43" transform="translate(-134.95 515.42) rotate(-89.88)"/></g><g><path class="g" d="M167.17,309.38l.04-40.93,33.01,.07-.02,41.14c0,5.84-4.25,10.61-9.6,10.8-4.25,.15-9.25,.09-13.54-.01-5.51-.14-9.9-5.05-9.89-11.06Z"/><rect class="j" x="187.34" y="276.52" width="7.43" height="21.16" transform="translate(-96.44 477.57) rotate(-89.88)"/><rect class="j" x="187.34" y="265.98" width="7.43" height="21.16" transform="translate(-85.9 467.05) rotate(-89.88)"/><rect class="j" x="187.06" y="287.55" width="7.95" height="21.16" transform="translate(-107.48 488.55) rotate(-89.88)"/></g></g><rect class="j" x="55.88" y="259.05" width="96.95" height="33.01" rx="16.5" ry="16.5" transform="translate(-189.31 251.53) rotate(-64.58)"/><g><path class="d" d="M133.48,206.77h0c-17.03,0-34.5-4.29-36.1-15.29-.62-5.29-.14-14.13,1.51-19.19l3.81-11.69-5.32-24.32c0-17.23,13.97-31.2,31.2-31.2h9.8c17.23,0,31.2,13.97,31.2,31.2l-5.32,24.32,4.36,13.4c8.92,26.32-15.21,32.77-35.15,32.77Z"/><path class="i" d="M97.95,134.42h0l-2.75-6.43c-5.18-9.98,2.76-19.65,13.99-20.3,.33-.02,.66-.03,.99-.03l7.26-.63h0c4.94,3.69,2.36,10.93-2.01,17.79-3.81,5.97-10.39,9.6-17.48,9.6Z"/><path class="i" d="M167.28,128.99l1.88,5.43,2.75-6.43c5.18-9.98-2.76-19.65-13.99-20.3-.33-.02-.66-.03-.99-.03l-9.14-1.15,1.88,.52c3.97,2.51,7.24,4.14,8.88,5.98,6.11,6.84,6.64,9.92,8.73,15.97Z"/><rect class="i" x="97.38" y="155.96" width="72.12" height="11"/><rect class="e" x="135.89" y="153.32" width="22" height="16.28"/></g><path class="h" d="M215.34,88.91l13.79-21.56c4.76-6.58,13.52-8.45,19.53-4.17,4.27,3.03,6.01,8.35,4.97,13.53-.43,2.13-1.32,4.22-2.7,6.14l-13.72,19.22-21.87-13.16Z"/><g><g><path class="g" d="M107.36,333.18l-37.78-17.95c-1.31-.62-1.87-2.2-1.25-3.51l3.43-7.2c3.68-7.71,12.91-10.99,20.63-7.33l5.66,2.7c3.77,1.79,7.53,7.13,6.91,11.65h0l7.1,11.38c1.16,1.86,1.3,4.19,.35,6.18l-1.31,2.77c-.67,1.4-2.34,2-3.74,1.33Z"/><rect class="j" x="85.83" y="304.34" width="3.8" height="43.43" transform="translate(-244.42 265.33) rotate(-64.58)"/></g><g><path class="g" d="M73.33,301.28l18.01-37.99,29.81,14.17-18.08,38.19c-2.57,5.42-8.5,8.04-13.42,5.93-3.91-1.68-8.41-3.86-12.23-5.8-4.92-2.48-6.74-8.92-4.09-14.5Z"/><rect class="j" x="100.64" y="282.22" width="7.43" height="21.16" transform="translate(-204.89 261.38) rotate(-64.58)"/><rect class="j" x="105.16" y="272.7" width="7.43" height="21.16" transform="translate(-193.71 260.03) rotate(-64.58)"/><rect class="j" x="95.61" y="291" width="7.95" height="21.16" transform="translate(-215.54 262.08) rotate(-64.58)"/></g></g><ellipse class="i" cx="192.8" cy="236.49" rx="9.19" ry="14.49" transform="translate(-34.34 32.75) rotate(-8.92)"/><ellipse class="i" cx="123.44" cy="248.89" rx="15.41" ry="11.54" transform="translate(-145.03 320.34) rotate(-78.52)"/></g><rect class="f" width="275.94" height="343.68"/><polygon class="i" points="157.67 108.23 115.88 108.23 113.48 101.27 159.56 101.27 157.67 108.23"/></g></g></g></svg>