<?xml version="1.0" encoding="UTF-8"?><svg xmlns="http://www.w3.org/2000/svg" viewBox="0 0 275.94 343.68"><defs><style>.d{fill:#e0c3f8;}.e{fill:#8d559b;}.f{fill:#bd94cb;}.g{fill:#b5a3c3;}.h{fill:#9b77ac;}.i,.j{fill:none;}.j{stroke:#9b77ac;stroke-miterlimit:10;stroke-width:4px;}</style></defs><g id="a"/><g id="b"><g id="c"><g><g><rect class="h" x="117.18" y="160.24" width="23.53" height="57.74" rx="11.76" ry="11.76" transform="translate(-10.76 7.8) rotate(-3.33)"/><rect class="h" x="94.37" y="210.96" width="55.65" height="23.53" rx="11.76" ry="11.76" transform="translate(-131.76 229.19) rotate(-62.71)"/><g><g><path class="e" d="M125.33,280.85l-38.92-20.08c-1.35-.7-1.81-2.52-1.01-4.07l4.38-8.48c4.7-9.08,14.94-13.11,22.89-9.01l5.83,3.02c3.88,2,7.42,8.14,6.32,13.43h0l6.55,13.11c1.07,2.15,.99,4.86-.21,7.2l-1.68,3.26c-.85,1.65-2.71,2.38-4.15,1.64Z"/><rect class="h" x="102.62" y="250.24" width="4.54" height="45.48" transform="translate(-185.79 241.02) rotate(-62.71)"/></g><g><path class="e" d="M91.11,245.72l13.23-25.68,30.71,15.85-13.32,25.9c-2.93,5.69-9.28,8.32-14.35,5.95-4.03-1.89-8.67-4.33-12.61-6.49-5.06-2.77-6.69-9.66-3.67-15.52Z"/><rect class="h" x="117.67" y="229.01" width="7.99" height="20.64" transform="translate(-146.81 237.71) rotate(-62.71)"/><rect class="h" x="112.88" y="237.74" width="8.54" height="20.64" transform="translate(-157.01 238.43) rotate(-62.71)"/></g></g><path class="f" d="M28.37,105.28l14.24,5.9c1.57-.84,1.42-3.99,1.14-6.03-.15-1.08,.43-2.15,1.4-2.62,1.15-.56,2.49-.1,3.05,1.04,1.83,3.72,5.84,11.05,7.01,13.18l4.47,1.98-11.79,21.3-23.96-7.85c-.94-.41-1.5-1.4-1.4-2.47,.11-1.24,1.07-2.25,2.27-2.38l7.21-.25c.09,0,.09-1.41,0-1.44l-10.16-3.24c-1.48-.58-2.35-2.14-2.12-3.79h0c.26-1.9,1.97-3.27,3.8-3.04l11.12,1.95,.34-1-8.02-4.17c-1.42-.78-2.78-1.83-2.63-3.53l.07-.79c.15-1.74,2.46-3.4,3.99-2.73Z"/><path class="d" d="M89.59,144.37l31.74-12.97c3.85-1.57,6.49-5.91,5.9-9.7h0c-.59-3.78-4.19-5.58-8.04-4l-31.74,12.97c-3.85,1.57-6.49,5.91-5.9,9.7h0c.59,3.78,4.19,5.58,8.04,4Z"/><path class="d" d="M47.89,137.81l34.78,7.16c4.33,1.14,8.77-1.45,9.9-5.79h0c1.14-4.33-1.45-8.77-5.79-9.9l-33.81-10.84c-5.93-1.56-11.88,1.52-13.28,6.87h0c-1.4,5.35,2.27,10.95,8.2,12.51Z"/><path class="f" d="M68.77,119.14l-12.27-3.77c-7.72-1.92-15.44,2.2-17.25,9.2-1.28,4.96,.77,10.04,4.81,13.26,1.66,1.32,3.65,2.33,5.89,2.89l10.75,2.06,8.06-23.64Z"/><path class="f" d="M236.58,75.52l-11.1,10.12c-1.71-.25-2.62-3.19-3.03-5.15-.22-1.04-1.1-1.83-2.15-1.94-1.24-.13-2.32,.73-2.46,1.96-.45,4.01-1.7,12.06-2.06,14.41l-3.44,3.29,17.85,15.63,19.37-15.13c.72-.69,.91-1.78,.47-2.73-.51-1.1-1.73-1.71-2.87-1.43l-6.69,2.15c-.09,.03-.55-1.27-.48-1.32l8.24-6.33c1.16-1.02,1.45-2.74,.69-4.18h0c-.87-1.66-2.89-2.35-4.49-1.53l-9.55,5.47-.64-.81,5.98-6.48c1.05-1.19,1.94-2.6,1.25-4.1l-.33-.7c-.72-1.54-3.38-2.31-4.56-1.18Z"/><path class="d" d="M190.58,132.3l-34.26-1.43c-4.15-.17-8.11-3.36-8.84-7.12h0c-.73-3.76,2.05-6.67,6.2-6.49l34.26,1.43c4.15,.17,8.11,3.36,8.84,7.12h0c.73,3.76-2.05,6.67-6.2,6.49Z"/><path class="d" d="M227.57,111.99l-30.29,18.53c-3.69,2.54-8.74,1.61-11.28-2.08h0c-2.54-3.69-1.61-8.74,2.08-11.28l28.13-21.67c5.05-3.48,11.69-2.6,14.83,1.95h0c3.14,4.56,1.58,11.07-3.47,14.55Z"/><rect class="h" x="147.36" y="157.45" width="23.53" height="57.74" rx="11.76" ry="11.76" transform="translate(-72.55 106.54) rotate(-30.5)"/><rect class="h" x="140.64" y="207.53" width="55.65" height="23.53" rx="11.76" ry="11.76" transform="translate(-51.18 387.31) rotate(-89.88)"/><path class="d" d="M137.81,184.07h0c-11.88,0-24.06-3.05-25.17-10.89-.43-3.77-.1-10.06,1.05-13.67l2.66-8.33-3.71-17.33c0-12.27,9.74-22.22,21.76-22.22h6.83c12.02,0,21.76,9.95,21.76,22.22l-3.71,17.33,3.04,9.55c6.22,18.75-10.61,23.34-24.51,23.34Z"/><g><g><path class="e" d="M197.8,269.61l-43.8-.09c-1.52,0-2.76-1.41-2.75-3.14l.03-9.47c.03-10.15,7.3-18.35,16.25-18.34l6.56,.02c4.37,0,10.32,3.83,11.75,8.99h0l11.81,8.61c1.94,1.41,3.1,3.84,3.1,6.45v3.64c-.01,1.84-1.33,3.33-2.95,3.33Z"/><rect class="h" x="173.77" y="249.18" width="4.51" height="45.48" transform="translate(-96.26 447.38) rotate(-89.88)"/></g><g><path class="e" d="M151.31,254.1l.04-28.68,34.56,.07-.02,28.91c0,6.35-4.45,11.55-10.05,11.76-4.45,.16-9.69,.1-14.18-.01-5.77-.15-10.37-5.5-10.36-12.04Z"/><rect class="h" x="171.61" y="224.28" width="7.93" height="20.64" transform="translate(-59.39 409.69) rotate(-89.88)"/><rect class="h" x="171.31" y="234.04" width="8.48" height="20.64" transform="translate(-69.17 419.41) rotate(-89.88)"/></g></g><path class="g" d="M110.51,133.04h0l-1.84-4.3c-3.46-6.67,1.85-13.13,9.35-13.57,.22-.01,.44-.02,.66-.02l4.86-.42h0c3.3,2.47,1.58,7.31-1.35,11.89-2.55,3.99-6.95,6.42-11.68,6.42Z"/><path class="g" d="M162.82,134.61h0l3.49-4.02c3.92-7.57-2.09-14.9-10.61-15.39-.25-.01-.5-.02-.75-.02l-6.93-.87,1.42,.39c3.01,1.9,5.49,3.14,6.73,4.54,3.33,3.73,4.47,5.98,5.44,8.66,.78,2.15,1.18,4.42,1.2,6.71Z"/><rect class="g" x="112.45" y="149.72" width="51.2" height="7.81"/><rect class="j" x="139.78" y="147.85" width="15.62" height="11.55"/><path class="f" d="M204.13,101.59l10.01-7.51c6.44-4.31,14.89-3.09,18.85,2.73,2.81,4.12,2.62,9.46-.03,13.75-1.09,1.76-2.58,3.34-4.45,4.6l-9.18,5.45-15.21-19.01Z"/><polygon class="g" points="160.07 116.31 118.29 116.31 115.89 109.35 161.97 109.35 160.07 116.31"/></g><rect class="i" width="275.94" height="343.68"/></g></g></g></svg>