<svg width="1698" height="914" viewBox="0 0 1698 914" fill="none" xmlns="http://www.w3.org/2000/svg">
<path d="M694.399 132.426C675.619 41.644 543.689 8.03169 499.6 9.34248L212.5 47L266.009 741.497C229.744 759.848 228.973 872.61 407.74 887.44C586.507 902.271 753.086 964.964 806.355 822.837C859.624 680.71 889.5 756 967.5 700.5C1037.79 650.487 949 546 1093.5 536C1238 526 1530 479 1530 479C1380.88 479 1130.14 466.409 1085 444.5C1039.86 422.591 1020.5 408.5 983.5 337C947.215 266.882 921.47 202.647 859.624 184.67C797.778 166.693 717.874 245.902 694.399 132.426Z" fill="#D6559A"/>
<path d="M697 124.5C678.221 36.1457 543.689 7.25542 499.6 8.53116L251 101.5L266.009 721.109C229.744 738.97 228.973 848.716 407.74 863.15C586.507 877.584 763.231 946.327 816.5 808C869.769 669.673 934.919 740.389 978.802 680.537C1028.91 612.194 984.67 564.963 1059.16 542C1133.64 519.037 1530 483.162 1530 483.162V478.788C1380.88 478.788 1104.3 470.04 1059.16 448.717C1014.01 427.394 985.573 398.963 967.967 324.058C950.361 249.154 933.846 184.496 872 167C810.154 149.504 720.475 234.943 697 124.5Z" fill="#FACF1A"/>
<path d="M704 108C685.221 19.6458 543.689 7.25547 499.6 8.53121L231.5 51L266.009 721.109C229.744 738.97 228.973 848.716 407.74 863.15C586.507 877.584 763.731 944.327 817 806C870.269 667.673 934.919 740.389 978.802 680.537C1028.91 612.194 984.67 551.505 1059.16 528.542C1133.64 505.578 1530 483.162 1530 483.162V478.788C1380.88 478.788 1120.14 471.323 1075 450C1029.86 428.677 1005.61 415.904 988 341C970.394 266.096 921.346 217.496 859.5 200C797.654 182.504 727.475 218.443 704 108Z" fill="#6EBD90"/>
<path d="M694.399 128.323C675.619 39.9691 543.689 7.25557 499.6 8.53131C499.6 8.53131 313 -21.7034 190 32.5C67.0001 86.7034 -37.6776 329 14.0002 556C65.678 783 158 908 398.5 882.5C639 857 753.086 938.602 806.354 800.275C859.623 661.948 934.919 740.389 978.802 680.537C1028.91 612.194 984.67 551.505 1059.16 528.542C1133.64 505.579 1530 483.162 1530 483.162V478.788C1391.5 483.162 1104.3 476.323 1059.16 455C1014.01 433.677 985.572 398.963 967.967 324.059C950.361 249.154 921.47 196.667 859.623 179.171C797.777 161.675 717.873 238.766 694.399 128.323Z" fill="white"/>
<path d="M1539.97 536.294L1598.3 491.133L1540.95 497.846L1540.95 511.534L1539.97 536.294Z" fill="#9F64AC"/>
<path d="M1539.97 424L1598.3 469.161L1540.95 462.448L1540.95 448.76L1539.97 424Z" fill="#9F64AC"/>
<path d="M1697.32 474.35C1697.32 474.35 1663.75 512.951 1628.51 514.629C1593.26 516.307 1553.82 496.168 1553.82 496.168L1553.82 464.28C1553.82 464.28 1598.3 440.783 1628.51 442.461C1658.72 444.14 1697.32 474.35 1697.32 474.35Z" fill="#DDBAE4"/>
<rect x="1554.66" y="474.349" width="13.4264" height="26.8529" transform="rotate(90 1554.66 474.349)" fill="#C4C4C4"/>
<ellipse cx="1639.5" cy="479.5" rx="22.5" ry="22.5" transform="rotate(90 1639.5 479.5)" fill="#B791B5"/>
<rect x="1554.66" y="470.992" width="20.1397" height="6.71322" transform="rotate(90 1554.66 470.992)" fill="#DFDFDF"/>
<circle cx="1639.5" cy="479.5" r="17.5" transform="rotate(90 1639.5 479.5)" fill="#732E82"/>
<circle cx="1641.5" cy="481.5" r="10.5" transform="rotate(90 1641.5 481.5)" fill="#863E96"/>
</svg>
