<link rel="stylesheet" href="../../src/main.css">
<!-- <link rel="stylesheet" href="../src/components.css"> -->




<svg width="1181" height="904" viewBox="0 0 1181 904" fill="none" xmlns="http://www.w3.org/2000/svg">
<g id="ship__smoke">
<path id="smoke__pink" d="M345 132.3C326.2 41.4997 194.3 7.89975 150.2 9.19975L-136.9 46.8997L-83.3999 741.4C-119.7 759.8 -120.4 872.5 58.3001 887.3C237.1 902.1 408.5 934.5 456.9 822.7C510.2 680.6 540 755.9 618 700.4C688.3 650.4 599.5 545.9 744 535.9C888.5 525.9 1180.5 478.9 1180.5 478.9C1031.4 478.9 780.6 466.3 735.5 444.4C690.4 422.5 671 408.4 634 336.9C597.7 266.8 572 202.5 510.1 184.6C448.2 166.7 368.5 245.8 345 132.3Z" fill="#D6559A"/>
<path id="smoke__yellow" d="M347.6 124.4C328.8 35.9996 194.3 7.09959 150.2 8.39959L-98.3999 101.4L-83.3999 721C-119.7 738.9 -120.4 848.6 58.3001 863C237.1 877.4 413.8 946.2 467.1 807.8C520.4 669.4 585.5 740.2 629.4 680.3C679.5 612 635.3 564.7 709.8 541.8C784.3 518.8 1180.6 483 1180.6 483V478.6C1031.5 478.6 754.9 469.9 709.8 448.5C664.6 427.2 636.2 398.7 618.6 323.8C601 248.9 584.5 184.2 522.6 166.7C460.7 149.2 371.1 234.8 347.6 124.4V124.4Z" fill="#FACF1A"/>
<path id="smoke__green" d="M354.6 107.9C335.8 19.4997 194.3 7.09974 150.2 8.39974L-117.9 50.8997L-83.3999 721C-119.7 738.9 -120.4 848.6 58.3001 863C237.1 877.4 414.3 944.2 467.6 805.8C520.9 667.4 585.5 740.2 629.4 680.3C679.5 612 635.3 551.3 709.8 528.3C784.3 505.3 1180.6 482.9 1180.6 482.9V478.5C1031.5 478.5 770.7 471 725.6 449.7C680.5 428.4 656.2 415.6 638.6 340.7C621 266 572 217.4 510.1 199.9C448.2 182.4 378.1 218.3 354.6 107.9Z" fill="#6EBD90"/>
<path id="smoke__white" d="M345 128.2C326.2 39.7998 194.3 7.09977 150.2 8.39977C150.2 8.39977 -36.4 -21.8002 -159.4 32.3998C-282.4 86.5998 -387.1 328.9 -335.4 555.9C-283.7 782.9 -191.4 907.9 49.1 882.4C289.6 856.9 403.7 938.5 457 800.2C510.3 661.9 585.6 740.3 629.4 680.5C679.5 612.2 635.3 551.5 709.8 528.5C784.3 505.5 1180.6 483.1 1180.6 483.1V478.7C1042.1 483.1 754.9 476.2 709.8 454.9C664.6 433.6 636.2 398.9 618.6 324C601 249 572.1 196.5 510.2 179.1C448.4 161.6 368.5 238.6 345 128.2V128.2Z" fill="white"/>
</g>
</svg>
