<?xml version="1.0" encoding="UTF-8"?><svg id="Camada_2" xmlns="http://www.w3.org/2000/svg" viewBox="0 0 55.17 21.78"><defs><style>.cls-1{fill:none;stroke:#fff;stroke-miterlimit:10;stroke-width:4px;}</style></defs><g id="Camada_1-2"><g><path class="cls-1" d="M12.99,2h1.59c4.72,0,8.55,3.83,8.55,8.55v4.62c0,2.39-1.94,4.32-4.32,4.32H6.32c-2.39,0-4.32-1.94-4.32-4.32v-2.18C2,6.92,6.92,2,12.99,2Z" transform="translate(25.12 21.49) rotate(-180)"/><path class="cls-1" d="M36.21,2.29h12.81c2.29,0,4.16,1.86,4.16,4.16v2.78c0,5.83-4.73,10.56-10.56,10.56h0c-5.83,0-10.56-4.73-10.56-10.56v-2.78c0-2.29,1.86-4.16,4.16-4.16Z"/><path class="cls-1" d="M23.12,9.76s4.81-7.84,8.93,0"/></g></g></svg>