<?xml version="1.0" encoding="UTF-8"?><svg id="Camada_2" xmlns="http://www.w3.org/2000/svg" viewBox="0 0 28.8 16.62"><defs><style>.cls-1{fill:#fff;}</style></defs><g id="Camada_1-2"><g><path class="cls-1" d="M27.84,7.83c.67-1.99,.96-4.13,.96-6.27V0l-1.01,.79c-3.93,3.07-8.67,4.73-13.54,4.74-.19,0-.38,0-.57,0-.59,0-1.18-.04-1.76-.08-3.69-.3-7.24-1.62-10.48-3.54L0,1.04l.8,3.39c.28,1.5,.68,2.9,1.17,4.18,3.25,1.46,14.93,5.84,25.87-.78Z"/><path class="cls-1" d="M14.83,12.15c-5.47,0-10.08-1.55-12.44-2.53,1.94,4.27,5.2,6.99,9.81,6.99h4.09c4.72,0,8.46-2.31,10.73-6.86,.13-.26,.24-.52,.36-.78-4.28,2.37-8.64,3.17-12.56,3.17Z"/></g></g></svg>