<?xml version="1.0" encoding="UTF-8"?><svg id="Camada_2" xmlns="http://www.w3.org/2000/svg" viewBox="0 0 33.41 46.06"><defs><style>.cls-1{fill:#fff;}</style></defs><g id="Camada_1-2"><path class="cls-1" d="M7.48,46.06c-1.42,0-2.81-.43-3.97-1.26-1.66-1.19-2.99-2.67-3.4-5-.84-4.68,3.1-8.85,8.11-8.49,3.44,.25,5.36-2.39,4.02-5.74-2.24-5.59-4.57-11.14-6.92-16.69-1.01-2.4-.11-6.85,2.8-8.88,0,0,.76,1.13,1.64,3.2,2.11,5,4.37,9.93,6.91,15.64,2.29-5.15,4.26-9.75,6.39-14.27C23.6,3.44,25.09,.03,25.09,.03c1.81,.41,3.31,3.65,3.54,5.74,.16,1.47-.38,2.74-.91,4.02-2.17,5.24-4.3,10.51-6.61,15.69-.79,1.76,.04,3.06,.44,4.61,.68,2.64,2.4,1.32,3.8,1.23,3.67-.24,6.61,1.72,7.71,5.17,1.06,3.31-.37,6.82-3.48,8.65-.07,.04-.13,.08-.19,.11-.73,.44-1.55,.7-2.4,.75h0c-3.33,.21-6.41-1.77-7.6-4.89-1.03-2.72-1.34-6-2.83-8.83-2.06,4.92-1.3,10.67-6.03,13.16-.8,.42-1.69,.62-2.59,.62h-.46Zm3.66-7.59c-.34-1.95-1.43-3.5-3.75-3.52-2.34-.01-3.66,1.54-3.66,3.74,0,2.07,1.39,3.51,3.49,3.57,2.23,.06,3.59-1.27,3.92-3.79Zm18.55,.02c-.39-2.22-1.58-3.71-3.92-3.52-2.26,.18-3.57,1.65-3.43,3.94,.14,2.16,1.65,3.39,3.69,3.35,2.24-.04,3.49-1.51,3.66-3.77Zm-12.93-12.73c-1.21-.08-1.76,.74-1.75,1.7,.01,.96,.63,1.79,1.77,1.73,.94-.05,1.5-.73,1.55-1.59,.06-1.01-.41-1.78-1.58-1.84Z"/></g></svg>