<?xml version="1.0" encoding="UTF-8"?><svg id="Camada_2" xmlns="http://www.w3.org/2000/svg" viewBox="0 0 32.83 25.67"><defs><style>.cls-1{fill:#7a445f;}.cls-2{fill:#673a50;}.cls-3{fill:#c4c4c4;}.cls-4{fill:#fefefe;}</style></defs><g id="Camada_1-2"><g><g><path class="cls-3" d="M15.57,0h2.28C24.57,0,30.02,5.46,30.02,12.18v4.14c0,5.16-4.19,9.34-9.34,9.34h-7.95c-5.16,0-9.34-4.19-9.34-9.34v-4.14C3.39,5.46,8.85,0,15.57,0Z"/><rect class="cls-3" x="0" y="12.3" width="32.83" height="6.88" rx="3.14" ry="3.14"/></g><g><path class="cls-4" d="M15.23,13.91c0,.56,0,1.11,0,1.67,0,.54-.3,.84-.83,.84-1.12,.01-2.24,.05-3.36-.02-1.91-.11-3.42-1.7-3.5-3.6-.02-.42-.02-.85,0-1.27,.07-1.25,.96-2.38,2.19-2.67,.96-.23,1.96-.24,2.92,.08,1.54,.51,2.55,1.93,2.58,3.56,0,.47,0,.94,0,1.4Z"/><path class="cls-4" d="M18.96,13.81c0-.45,0-.89,0-1.34,.05-2.07,1.64-3.66,3.72-3.72,.36-.01,.72-.01,1.07,0,1.31,.06,2.44,.89,2.76,2.16,.28,1.12,.29,2.26-.24,3.33-.68,1.38-1.83,2.11-3.37,2.17-1.01,.04-2.01,.02-3.02,0-.68,0-.91-.25-.93-.94-.01-.56,0-1.11,0-1.67Z"/><path class="cls-1" d="M13.89,12.1c.01,1.46-.24,2.37-.9,3.13-1,1.14-2.49,1.16-3.52,.05-1.29-1.39-1.27-4.04,.02-5.42,.99-1.05,2.44-1.05,3.43,0,.63,.67,.96,1.61,.96,2.24Z"/><path class="cls-1" d="M19.93,12.6c.04-1.02,.29-1.9,.93-2.64,1.05-1.2,2.75-1.22,3.83-.05,1.3,1.4,1.28,4.01-.04,5.39-1.02,1.07-2.67,1.07-3.7,0-.73-.77-.98-1.72-1.02-2.7Z"/><path class="cls-2" d="M11.87,12.45c0,.82-.28,1.34-.69,1.26-.64-.13-.61-.68-.64-1.17-.01-.17,.02-.36,.08-.52,.11-.31,.31-.56,.68-.53,.4,.02,.5,.32,.56,.65,.02,.13,.02,.27,.02,.32Z"/><path class="cls-2" d="M21.95,12.55c0-.61,.37-1.09,.84-1.08,.5,.02,.88,.52,.86,1.15-.02,.59-.42,1.12-.85,1.11-.46-.01-.85-.55-.85-1.18Z"/></g></g></g></svg>