<?xml version="1.0" encoding="UTF-8"?><svg id="Camada_2" xmlns="http://www.w3.org/2000/svg" viewBox="0 0 32.83 25.67"><defs><style>.cls-1{fill:#7a445f;}.cls-2{fill:#673a50;}.cls-3{fill:#c4c4c4;}.cls-4{fill:#fefefe;}</style></defs><g id="Camada_1-2"><g><g><path class="cls-3" d="M15.57,0h2.28C24.57,0,30.02,5.46,30.02,12.18v4.14c0,5.16-4.19,9.34-9.34,9.34h-7.95c-5.16,0-9.34-4.19-9.34-9.34v-4.14C3.39,5.46,8.85,0,15.57,0Z"/><rect class="cls-3" x="0" y="12.3" width="32.83" height="6.88" rx="3.14" ry="3.14"/></g><g><path class="cls-4" d="M7.94,8.72l.24-.04c.92,0,1.85-.02,2.77-.01,2.25,.02,3.86,1.64,3.88,3.89,0,.79,.01,1.56-.4,2.29-.96,1.69-3.13,1.9-4.87,1.27-1.59-.57-2.45-1.91-2.46-3.6,0-.63-.02-1.21-.01-1.89,0-.81,.17-1.46,.86-1.92Z"/><path class="cls-4" d="M26.32,11.52c0,.2-.01,.41,0,.61,.18,2.9-2.24,4.95-5.61,4.12-1.18-.29-2.07-1.47-2.13-2.68-.06-1.23-.05-2.44,.81-3.46,.75-.89,1.68-1.42,2.86-1.43,.83-.01,1.67-.02,2.5,0,.97,.02,1.54,.6,1.56,1.57,0,.43,0,.86,0,1.28Z"/><path class="cls-1" d="M13.48,12.08c.02,1.44-.24,2.37-.94,3.15-1,1.12-2.48,1.12-3.5,.03-1.3-1.4-1.3-4.06,0-5.46,1-1.07,2.44-1.09,3.45-.03,.64,.67,.98,1.62,.98,2.31Z"/><path class="cls-1" d="M19.56,12.53c.03-1.02,.29-1.95,1-2.72,1.04-1.13,2.71-1.13,3.76-.01,1.32,1.4,1.32,4.02,.01,5.44-1.04,1.12-2.72,1.13-3.77,0-.71-.76-.97-1.7-1.01-2.72Z"/><path class="cls-2" d="M11.44,12.48c0,.53,0,1.18-.68,1.17-.67-.01-.62-.7-.66-1.2-.01-.13,0-.28,.04-.4,.12-.35,.29-.7,.74-.64,.4,.05,.52,.38,.56,.73,.02,.11,0,.22,0,.34Z"/><path class="cls-2" d="M22.39,11.4c.52,0,.9,.45,.93,1.11,.02,.57-.42,1.19-.86,1.19-.46,0-.85-.53-.87-1.17-.02-.6,.35-1.11,.8-1.12Z"/></g></g></g></svg>