<?xml version="1.0" encoding="UTF-8"?><svg id="Camada_2" xmlns="http://www.w3.org/2000/svg" viewBox="0 0 32.83 25.67"><defs><style>.cls-1{fill:#7a445f;}.cls-2{fill:#fefdfd;}.cls-3{fill:#fdfdfd;}.cls-4{fill:#673a50;}.cls-5{fill:#c4c4c4;}.cls-6{fill:#fefefe;}</style></defs><g id="Camada_1-2"><g><g><path class="cls-5" d="M15.57,0h2.28C24.57,0,30.02,5.46,30.02,12.18v4.14c0,5.16-4.19,9.34-9.34,9.34h-7.95c-5.16,0-9.34-4.19-9.34-9.34v-4.14C3.39,5.46,8.85,0,15.57,0Z"/><rect class="cls-5" x="0" y="12.3" width="32.83" height="6.88" rx="3.14" ry="3.14"/></g><g><path class="cls-1" d="M9.79,10.32c.6-.21,1.19-.14,1.78,.02,1.31,.11,1.8,1.46,1.82,2.59,.01,.72-.24,1.39-.65,1.99-.34,.49-.82,.7-1.41,.69l-1.38-.02c-.98,.07-1.46-.56-1.79-1.33-.58-1.36-.19-2.89,.91-3.71,.23-.09,.45-.25,.72-.23Z"/><path class="cls-1" d="M23.2,15.59l-1.25,.03c-1.05-.11-1.58-.6-1.86-1.86-.18-.79-.14-1.58,.23-2.34,.29-.6,.71-.99,1.39-1.09,.55-.15,1.11-.2,1.67-.02,.9,.17,1.44,.71,1.66,1.6,.29,1.21,.15,2.31-.73,3.25-.29,.31-.65,.5-1.1,.43Z"/><path class="cls-6" d="M11.33,15.61c2.32-.96,2.22-4.33,.24-5.27,1.35-.27,3.15,1.12,3.2,2.51,.02,.57-.02,1.15,.01,1.72,.03,.67-.34,1-.92,1.06-.84,.09-1.69,.13-2.53-.02Z"/><path class="cls-2" d="M23.2,15.59c2.13-.76,2.18-4.43,.17-5.28,1.55-.16,3.16,1.22,3.18,2.72,0,.5-.02,1.01,0,1.51,.04,.66-.3,1.01-.9,1.08-.81,.1-1.64,.15-2.46-.03Z"/><path class="cls-6" d="M21.7,10.33c-1.81,.87-1.99,4.3,.25,5.29-.8,.14-1.61,.1-2.41,.02-.6-.06-.96-.39-.93-1.06,.02-.55,0-1.1,0-1.66,.04-1.42,1.62-2.75,3.08-2.59Z"/><path class="cls-3" d="M9.24,10.61c-1.62,1.71-1.3,3.94,.71,4.98-.75,.19-1.51,.13-2.25,.03-.54-.07-.86-.39-.84-.99,.01-.37,0-.73,0-1.1,0-1.71,.48-2.41,2.1-3.07,.15-.05,.29-.1,.28,.15Z"/><path class="cls-6" d="M9.24,10.61l-.28-.15c.26-.14,.51-.32,.83-.15l-.55,.3Z"/><path class="cls-4" d="M10.66,13.52c-.49,0-.71-.25-.72-.73,0-.47,.18-.86,.66-.88,.49-.02,.7,.36,.71,.83,.01,.46-.17,.75-.66,.78Z"/><path class="cls-4" d="M22.5,13.52c-.37,0-.72-.21-.78-.74-.05-.47,.36-.89,.83-.91,.4-.01,.86,.41,.88,.81,.02,.47-.32,.82-.93,.83Z"/></g></g></g></svg>