<?xml version="1.0" encoding="UTF-8"?><svg id="Camada_2" xmlns="http://www.w3.org/2000/svg" viewBox="0 0 32.83 25.67"><defs><style>.cls-1{fill:#7a445f;}.cls-2{fill:#fefdfd;}.cls-3{fill:#fdfdfd;}.cls-4{fill:#fcfbfc;}.cls-5{fill:#fbfbfb;}.cls-6{fill:#673a50;}.cls-7{fill:#c4c4c4;}.cls-8{fill:#010101;}</style></defs><g id="Camada_1-2"><g><g><path class="cls-7" d="M15.57,0h2.28C24.57,0,30.02,5.46,30.02,12.18v4.14c0,5.16-4.19,9.34-9.34,9.34h-7.95c-5.16,0-9.34-4.19-9.34-9.34v-4.14C3.39,5.46,8.85,0,15.57,0Z"/><rect class="cls-7" x="0" y="12.3" width="32.83" height="6.88" rx="3.14" ry="3.14"/></g><g><path class="cls-1" d="M23.26,16.18c-.49,.23-1.01,.07-1.52,.14-.61,.06-.95-.36-1.27-.75-1.22-1.44-1-3.7,.46-4.93,.22-.09,.42-.22,.55-.43,.37-.2,.78-.22,1.18-.23,.83,0,1.67,0,2.5,0,.29,0,.59-.03,.82,.22,.05,.19-.11,.24-.23,.25-.77,.07-1.54,.13-2.1,0,1.38,.49,2.46,3.65,.31,5.52-.23,.08-.43,.25-.7,.22Z"/><path class="cls-1" d="M11.98,16.31c-.68,.07-1.32-.02-1.9-.4-.36,.04-.51-.24-.67-.48-1.12-1.63-.72-3.88,.74-4.98-.63-.02-1.4,.34-2.13-.23,.08-.13,.2-.2,.33-.2,1.19-.04,2.37-.15,3.55,.07,.2,.1,.37,.27,.59,.34,.63,.27,.95,.82,1.17,1.42,.47,1.32,.41,2.61-.45,3.77-.3,.4-.67,.74-1.24,.69Z"/><path class="cls-8" d="M25.96,10.32s-.02-.06-.03-.06c-1.54-.09-3.08-.28-4.59,.18-.1,.14-.27,.14-.4,.23-.51,.31-1.07,.56-1.49,1.01-.1,.11-.23,.22-.41,.13,.39-1.39,1.7-2.45,3.33-2.54,1.39-.08,2.8-.02,4.24-.02,0,1.4,.09,2.8-.03,4.18-.09,1.03-.76,1.81-1.68,2.33-.17,.04-.19-.07-.18-.2,.99-1.24,1.17-2.69,1.07-4.21-.02-.35-.07-.73,.18-1.04Z"/><path class="cls-8" d="M11.97,10.3c-1.31-.18-2.62-.22-3.94,.02,.19,.22,.18,.5,.19,.77,0,.54,.02,1.08,0,1.62-.03,.91,.2,1.73,.78,2.45,.14,.17,.3,.34,.28,.59-.05,.08-.11,.1-.19,.04-1.12-.67-1.78-1.61-1.75-2.98,.03-1.17,0-2.34,0-3.52,1.52,0,2.99-.09,4.44,.02,1.53,.12,2.77,1.18,3.05,2.38-.2,.08-.34-.05-.47-.16-.55-.47-1.2-.74-1.85-1.02-.17-.09-.39-.06-.54-.21Z"/><path class="cls-3" d="M12.53,10.44c.92,.14,1.62,.68,2.31,1.25,.24,.33,.23,.73,.24,1.09,.05,1.18,.02,2.37,.02,3.62-1.09-.02-2.11,.14-3.13-.08,2.35-.81,2.28-4.82,.45-5.74-.03-.05-.06-.1,0-.14,.02-.02,.06,0,.1,.02Z"/><path class="cls-2" d="M19.05,11.81c.56-.51,1.11-1.05,1.9-1.22,.14-.05,.17,.01,.13,.14-1.88,1.64-1.54,4.47,.66,5.59-1.13,.11-1.83,.04-2.86,.09,.08-1.57-.16-3.09,.17-4.6Z"/><path class="cls-5" d="M25.99,10.24c0,.79-.02,1.65,0,2.44,.03,1.17-.39,2.15-1.23,2.95-.11,.24-.35,.31-.57,.39h-.11c-.14,.08-.28,.13-.27-.12,1.76-1.75,1.35-4.44-.86-5.74,1.06,0,2.02-.08,3.04,.08Z"/><path class="cls-4" d="M9.31,15.74c-.96-.88-1.39-1.97-1.33-3.27,.03-.72,.04-1.44,.05-2.16,1.32-.22,2.67-.16,2.85-.13,.03,0-.15,.1-.19,.13-1.19,.7-1.67,1.63-1.7,2.81-.03,1.08,.21,2.05,1.08,2.79,.44,.3,1.05,.4,.91,.42-.13-.09-1.67-.3-1.68-.59Z"/><path class="cls-5" d="M23.81,15.91c.06,.11,.42-.04,.53-.03-.26,.14,.08,.22-1.08,.3l.55-.28Z"/><path class="cls-8" d="M24.19,16.03c.13-.21,.38-.26,.57-.39l.14,.14c-.2,.18-.43,.3-.71,.25Z"/><path class="cls-8" d="M9.25,15.68c.33,.25,.25,.21,.47,.32-.24,.01-.45-.07-.62-.22,.07-.01,.08-.08,.15-.09Z"/><path class="cls-6" d="M23.26,13.45c.02,.54-.27,.85-.79,.9-.5,.05-.84-.31-.84-.82,0-.58,.31-.91,.84-.9,.47,.01,.78,.34,.79,.82Z"/><path class="cls-5" d="M21.08,10.73l-.13-.14c.23-.1,.21-.09,.4-.15-.11,.14-.15,.17-.27,.29Z"/><path class="cls-6" d="M10.75,13.51c-.02-.47,.2-.82,.66-.85,.54-.04,.64,.47,.66,.84,.02,.38-.21,.75-.69,.76-.5,.01-.65-.3-.63-.75Z"/><path class="cls-3" d="M12.53,10.44l-.11,.12c-.21-.13-.38-.19-.45-.27,.19,.04,.28,.05,.56,.14Z"/></g></g></g></svg>