<?xml version="1.0" encoding="UTF-8"?><svg id="Camada_2" xmlns="http://www.w3.org/2000/svg" viewBox="0 0 32.83 25.67"><defs><style>.cls-1{fill:#020201;}.cls-2{fill:#c4c4c4;}</style></defs><g id="Camada_1-2"><g><g><path class="cls-2" d="M15.57,0h2.28C24.57,0,30.02,5.46,30.02,12.18v4.14c0,5.16-4.19,9.34-9.34,9.34h-7.95c-5.16,0-9.34-4.19-9.34-9.34v-4.14C3.39,5.46,8.85,0,15.57,0Z"/><rect class="cls-2" x="0" y="12.3" width="32.83" height="6.88" rx="3.14" ry="3.14"/></g><g><path class="cls-1" d="M23.29,13.65c-.2-1.16-.85-1.81-1.85-1.85-.92-.04-1.66,.51-1.91,1.44-.15,.56-.16,.57-.74,.36,.31-1.63,1.13-2.4,2.57-2.4,1.47,0,2.46,.94,2.57,2.44-.21,.13-.42,.11-.63,.01Z"/><path class="cls-1" d="M9.1,13.6c.21-2.22,2.34-2.89,3.8-2.13,.86,.45,1.31,1.19,1.35,2.17-.21,.13-.42,.11-.63,.01-.14-1.09-.8-1.76-1.78-1.84-.96-.08-1.71,.47-1.98,1.43-.15,.56-.16,.57-.74,.36Z"/></g></g></g></svg>