<?xml version="1.0" encoding="UTF-8"?><svg id="Camada_2" xmlns="http://www.w3.org/2000/svg" viewBox="0 0 32.83 25.67"><defs><style>.cls-1{fill:#7a445f;}.cls-2{fill:#673950;}.cls-3{fill:#c4c4c4;}.cls-4{fill:#fefefe;}</style></defs><g id="Camada_1-2"><g><g><path class="cls-3" d="M15.57,0h2.28C24.57,0,30.02,5.46,30.02,12.18v4.14c0,5.16-4.19,9.34-9.34,9.34h-7.95c-5.16,0-9.34-4.19-9.34-9.34v-4.14C3.39,5.46,8.85,0,15.57,0Z"/><rect class="cls-3" x="0" y="12.3" width="32.83" height="6.88" rx="3.14" ry="3.14"/></g><g><g><path class="cls-4" d="M21.18,10.49c-.4-.29-.86-.08-1.29-.14,.69-.19,2.83-.22,3.63-.14-.26,.05-2.09,.23-2.35,.28Z"/><path class="cls-1" d="M21.95,10.34h.28c.25-.09,.49,0,.73,.03,1.14,.27,1.93,1.3,1.87,2.44-.08,1.39-1.1,2.41-2.13,2.47-1.77,.1-2.36-.08-3.11-1.46-.59-1.08-.16-3.16,1.53-3.44,.28-.07,.56-.11,.84-.04Z"/><path class="cls-4" d="M21.18,10.49c-1.36,.69-1.87,1.94-1.34,3.21,.49,1.16,1.78,1.74,3,1.35,.98-.31,1.62-1.19,1.65-2.24,.03-1.07-.56-1.92-1.6-2.33,.11-.33,.39-.15,.58-.16,.36-.02,.72-.06,1.08,.03,.89,.28,1.26,.92,1.27,1.81,0,.54,.02,1.08-.01,1.62-.07,1.11-.67,1.69-1.78,1.7-1.21,.02-2.42,.02-3.62,0-1.12-.02-1.7-.61-1.72-1.74-.01-.54,0-1.08,0-1.62-.02-.88,.35-1.49,1.21-1.77,.34,0,2.37-.17,2.7-.05,.09,.03-.73,0-1.42,.19Z"/><path class="cls-4" d="M24.56,10.35c-.55,.07-1.13-.14-1.66,.13l-.66-.14c.77-.17,1.55-.18,2.32,0Z"/><path class="cls-2" d="M22.87,12.66c0,.51-.15,.8-.62,.82-.48,.01-.65-.3-.65-.71,0-.39,.16-.78,.6-.8,.47-.02,.65,.34,.68,.69Z"/></g><g><path class="cls-4" d="M10.07,10.49c-.4-.29-.86-.08-1.29-.14,.69-.19,2.83-.22,3.63-.14-.26,.05-2.09,.23-2.35,.28Z"/><path class="cls-1" d="M10.85,10.34h.28c.25-.09,.49,0,.73,.03,1.14,.27,1.93,1.3,1.87,2.44-.08,1.39-1.1,2.41-2.13,2.47-1.77,.1-2.36-.08-3.11-1.46-.59-1.08-.16-3.16,1.53-3.44,.28-.07,.56-.11,.84-.04Z"/><path class="cls-4" d="M10.07,10.49c-1.36,.69-1.87,1.94-1.34,3.21,.49,1.16,1.78,1.74,3,1.35,.98-.31,1.62-1.19,1.65-2.24,.03-1.07-.56-1.92-1.6-2.33,.11-.33,.39-.15,.58-.16,.36-.02,.72-.06,1.08,.03,.89,.28,1.26,.92,1.27,1.81,0,.54,.02,1.08-.01,1.62-.07,1.11-.67,1.69-1.78,1.7-1.21,.02-2.42,.02-3.62,0-1.12-.02-1.7-.61-1.72-1.74-.01-.54,0-1.08,0-1.62-.02-.88,.35-1.49,1.21-1.77,.34,0,2.37-.17,2.7-.05,.09,.03-.73,0-1.42,.19Z"/><path class="cls-4" d="M13.45,10.35c-.55,.07-1.13-.14-1.66,.13l-.66-.14c.77-.17,1.55-.18,2.32,0Z"/><path class="cls-2" d="M11.76,12.66c0,.51-.15,.8-.62,.82-.48,.01-.65-.3-.65-.71,0-.39,.16-.78,.6-.8,.47-.02,.65,.34,.68,.69Z"/></g></g></g></g></svg>