<?xml version="1.0" encoding="UTF-8"?><svg id="Camada_2" xmlns="http://www.w3.org/2000/svg" viewBox="0 0 32.83 25.67"><defs><style>.cls-1{fill:#683951;}.cls-2{fill:#7a445f;}.cls-3{fill:#fdfdfd;}.cls-4{fill:#c4c4c4;}.cls-5{fill:#fefefe;}</style></defs><g id="Camada_1-2"><g><g><path class="cls-4" d="M15.57,0h2.28C24.57,0,30.02,5.46,30.02,12.18v4.14c0,5.16-4.19,9.34-9.34,9.34h-7.95c-5.16,0-9.34-4.19-9.34-9.34v-4.14C3.39,5.46,8.85,0,15.57,0Z"/><rect class="cls-4" x="0" y="12.3" width="32.83" height="6.88" rx="3.14" ry="3.14"/></g><g><g><path class="cls-2" d="M10.78,14.31l-.61-.2c-.93-.84-1.41-1.81-.85-3.07,.44-1.01,.94-1.32,2.03-1.24,.19,.03,.4,.01,.56,.16l.52,.26c1.66,.94,1.42,3.15-.05,4.15-.51,.35-1.08,.31-1.6-.05Z"/><path class="cls-3" d="M10.78,14.31c.9,.23,1.61-.08,2.07-.86,.53-.88,.51-1.8-.01-2.69-.11-.2-.28-.37-.42-.55,1.19,.47,1.69,1.42,1.82,2.61,.05,.46,.01,.92,.01,1.38,0,.89,0,.93-.92,.86-.84-.06-2.07-.19-3.32-1.07-.05-.04,.8,.36,.76,.31Z"/><path class="cls-5" d="M11.33,9.91c-1.43-.16-2.54,1.95-1.55,3.56,.1,.16,.24,.47,.64,.7,.06,.03-.26-.13-.26-.06-1.56-.94-2.19-2.36-2.17-4.13,0-.31,.09-.48,.43-.46,.97,.03,1.94-.1,2.9,.17,.09,.07,.09,.15,0,.22Z"/><path class="cls-3" d="M11.33,9.91v-.22c.22,.02,1.29,.53,1.19,.66-.45-.41-1-.42-1.19-.44Z"/><path class="cls-1" d="M11.88,12.25c-.06,.36-.14,.71-.56,.7-.37,0-.5-.32-.5-.64,0-.34,.12-.68,.53-.67,.38,0,.44,.34,.53,.61Z"/></g><g><path class="cls-2" d="M22.64,14.31l.61-.2c.93-.84,1.41-1.81,.85-3.07-.44-1.01-.94-1.32-2.03-1.24-.19,.03-.4,.01-.56,.16l-.52,.26c-1.66,.94-1.42,3.15,.05,4.15,.51,.35,1.08,.31,1.6-.05Z"/><path class="cls-3" d="M22.64,14.31c-.9,.23-1.61-.08-2.07-.86-.53-.88-.51-1.8,.01-2.69,.11-.2,.28-.37,.42-.55-1.19,.47-1.69,1.42-1.82,2.61-.05,.46-.01,.92-.01,1.38,0,.89,0,.93,.92,.86,.84-.06,2.07-.19,3.32-1.07,.05-.04-.8,.36-.76,.31Z"/><path class="cls-5" d="M22.08,9.91c1.43-.16,2.54,1.95,1.55,3.56-.1,.16-.24,.47-.64,.7-.06,.03,.26-.13,.26-.06,1.56-.94,2.19-2.36,2.17-4.13,0-.31-.09-.48-.43-.46-.97,.03-1.94-.1-2.9,.17-.09,.07-.09,.15,0,.22Z"/><path class="cls-3" d="M22.08,9.91v-.22c-.22,.02-1.29,.53-1.19,.66,.45-.41,1-.42,1.19-.44Z"/><path class="cls-1" d="M21.54,12.25c.06,.36,.14,.71,.56,.7,.37,0,.5-.32,.5-.64,0-.34-.12-.68-.53-.67-.38,0-.44,.34-.53,.61Z"/></g></g></g></g></svg>