<?xml version="1.0" encoding="UTF-8"?><svg id="Camada_2" xmlns="http://www.w3.org/2000/svg" viewBox="0 0 50.4 45.54"><defs><style>.cls-1{fill:#fff;}</style></defs><g id="Camada_1-2"><path class="cls-1" d="M45.09,19.88c-.06-10.99-8.98-19.88-19.97-19.88h0C14.11,0,5.19,8.9,5.14,19.9c-2.93,.54-5.14,3.11-5.14,6.19s2.29,5.73,5.3,6.21c1.01,7.47,7.4,13.24,15.14,13.24h9.36c7.74,0,14.12-5.75,15.14-13.21,3.08-.41,5.46-3.04,5.46-6.24s-2.3-5.74-5.31-6.21Zm-29.13,6.01c-1.39,0-2.52-1.4-2.52-3.12s1.13-3.12,2.52-3.12,2.52,1.4,2.52,3.12-1.13,3.12-2.52,3.12Zm9.29,12.24c-3.31,0-5.99-2.42-5.99-5.4h11.98c0,2.98-2.68,5.4-5.99,5.4Zm7.99-12.24c-1.39,0-2.52-1.4-2.52-3.12s1.13-3.12,2.52-3.12,2.52,1.4,2.52,3.12-1.13,3.12-2.52,3.12Z"/></g></svg>