<?xml version="1.0" encoding="UTF-8"?><svg id="Camada_2" xmlns="http://www.w3.org/2000/svg" viewBox="0 0 32.83 31.26"><defs><style>.cls-1{fill:#1a1818;}.cls-2{fill:#272424;}.cls-3{fill:#c4c4c4;}</style></defs><g id="Camada_1-2"><g><g><path class="cls-3" d="M15.57,5.6h2.28c6.72,0,12.18,5.46,12.18,12.18v4.14c0,5.16-4.19,9.34-9.34,9.34h-7.95c-5.16,0-9.34-4.19-9.34-9.34v-4.14c0-6.72,5.46-12.18,12.18-12.18Z"/><rect class="cls-3" x="0" y="17.9" width="32.83" height="6.88" rx="3.14" ry="3.14"/></g><g><path class="cls-1" d="M3.52,15.47c-.04-.06-.1-.11-.11-.18-.24-3.81,.08-7.5,2.63-10.61C8.42,1.79,11.46,.1,15.24,.04,19.5-.04,23.75,.03,28.01,0c.54,0,.67,.19,.65,.69-.08,2.03-.51,3.98-1.42,5.81,.05,.51-.2,.92-.44,1.34-.81,1.43-1.86,2.67-3.05,3.79-.26,.24-.59,.2-.85,.37-2.42,2-5.22,3.06-8.32,3.34-.97,.09-9.75,.06-11.07,.13Z"/><path class="cls-2" d="M22.91,12.01c1.94-1.45,3.34-3.32,4.34-5.51,0,.33,.27,.48,.45,.67,1.52,1.59,2.32,3.47,2.36,5.67,.01,.79,0,1.59,0,2.38,0,.31-.02,.57-.42,.55-2.62-.16-4.69-1.3-6.21-3.44-.13-.18-.2-.46-.52-.33Z"/></g></g></g></svg>