<?xml version="1.0" encoding="UTF-8"?><svg id="Camada_2" xmlns="http://www.w3.org/2000/svg" viewBox="0 0 48.33 29.99"><defs><style>.cls-1{fill:#fbfbfb;}.cls-2{fill:#1a1818;}.cls-3{fill:#c4c4c4;}.cls-4{fill:#fcfcfc;}</style></defs><g id="Camada_1-2"><g><g><path class="cls-3" d="M22.75,4.32h2.28c6.72,0,12.18,5.46,12.18,12.18v4.14c0,5.16-4.19,9.34-9.34,9.34h-7.95c-5.16,0-9.34-4.19-9.34-9.34v-4.14c0-6.72,5.46-12.18,12.18-12.18Z"/><rect class="cls-3" x="7.18" y="16.62" width="32.83" height="6.88" rx="3.14" ry="3.14"/></g><g><path class="cls-2" d="M37.08,15.33h-4.63c-.97-.04-.4-.06-.45-.12-.48-1.86-1.11-3.03-2.23-5.37-.05-.19-.1-.38-.12-.58-.02-.12-.12-.2-.12-.24,0,.05,.11,.14,.13,.27,.03,.24-.06-.26,0-.03,.4,1.43,.59,2.78,.82,4.24,.04,.25,.3,1.32,.25,1.57-.02,.13-1.36,.21-2.36,.26h-7.77l.44-4.1c0-.26,.05-.53,.04-.79-.02-.09-.12,0-.04-.02,.03,0,.04,0,.04,.05,.02,.23,.12-1.17-.05-.99-.36,1.36-.86,4.34-1.22,5.7-.14,0-2.87,.12-3.54,.16-1.54,0-3.07,0-4.61,0-.43-.02-.85-.04-1.39-.06v-3.37c.37-.32,.45-.77,.56-1.21,.33-1.23,.76-2.43,1.5-3.47,.46-.65,.58-1.53,1.34-2.01,.23-.14,.15-.5,.13-.77,.01-.14,.05-.27,.14-.37,.87-.92,1.8-1.75,2.99-2.23,.12-.05,.25-.1,.39-.05,4.63-2.42,9.25-2.4,13.86,.03,.33-.05,.61,.09,.88,.25,1.08,.68,2.04,1.51,2.91,2.44,.21,.22,.37,.46,.35,.78,2.34,2.89,3.32,6.22,3.21,10.03h-1.44Z"/><path class="cls-2" d="M13.93,4.44c.31,.68,.13,1.13-.62,1.3-.27,1.23-1.21,2.08-1.63,3.22-.28,.76-.55,1.51-.73,2.29-.1,.41-.25,.66-.69,.66,.13-2.57,1.44-4.65,2.95-6.84-1.43,.54-1.89,1.61-2.24,2.73-1.24,3.95-3.56,6.78-7.8,7.67-.15,.03-.31,.08-.47,.09-.74,0-1.48,0-2.7,0,2.53-.63,2.56-2.18,2.37-3.92-.16-1.43-.32-2.87-.17-4.33,.2-2.03,2.74-5.2,4.73-5.73,2.63-.71,5.19-.81,7.4,1.18,.19,.47-.3,.68-.41,1.03-.07,.22-.39,.44,.02,.64Z"/><path class="cls-2" d="M34.45,2.77c1.83-2.3,7.12-1.98,9.52,.23,2.2,2.04,2.79,4.3,2.45,7.06-.1,.78-.14,1.58-.22,2.36-.16,1.56,.46,2.62,2.13,3.06-3.88,.66-7.98-1.66-9.78-5.49-.56-1.18-.97-2.43-1.52-3.62-.3-.66-.86-1.09-1.57-1.28-.44-.74-.78-1.51-1.01-2.34Z"/><path class="cls-4" d="M34.45,2.77c.58,.67,.94,1.44,1.01,2.34-.05,.06-.1,.13-.15,.19-1.15-1.44-2.52-2.59-4.14-3.47,1.29-.37,2.32,.14,3.27,.94Z"/><path class="cls-1" d="M13.93,4.44l-.54,.46c.03-.9,.46-1.53,.93-2.13,.88-.7,1.79-1.27,2.99-.96-1.27,.7-2.44,1.53-3.39,2.64Z"/></g></g></g></svg>