<?xml version="1.0" encoding="UTF-8"?><svg id="Camada_2" xmlns="http://www.w3.org/2000/svg" viewBox="0 0 32.83 31.26"><defs><style>.cls-1{fill:#1a1818;}.cls-2{fill:#c4c4c4;}</style></defs><g id="Camada_1-2"><g><g><path class="cls-2" d="M15.57,5.6h2.28c6.72,0,12.18,5.46,12.18,12.18v4.14c0,5.16-4.19,9.34-9.34,9.34h-7.95c-5.16,0-9.34-4.19-9.34-9.34v-4.14c0-6.72,5.46-12.18,12.18-12.18Z"/><rect class="cls-2" x="0" y="17.9" width="32.83" height="6.88" rx="3.14" ry="3.14"/></g><path class="cls-1" d="M30.66,18.21l-.34,.86h-.12c-.14-1.4-.3-2.79-.43-4.19-.09-.94-.81-1.63-1.78-1.64-.57,0-1.15-.03-1.72,0-2.35,.16-4.4-.63-6.26-2-.53-.39-.92-.91-1.32-1.41-.29-.36-.48-.33-.78-.03-.62,.6-1.26,1.16-1.9,1.74-1.82,1.63-4.06,2.46-6.3,3.29-.57,.21-1.2,.26-1.8,.38-.07,.09-.16,.1-.25,.04-1.23,.16-2.47,.23-3.71,.19-.34-.01-.46,.14-.48,.47-.04,.74-.1,1.48-.16,2.22-.56-.95-.7-2.03-.81-3.09C1.74,7.65,6.84,1.06,14.2,.2c3.59-.42,7.23-.34,10.52,1.63,3.62,2.17,5.89,5.3,6.58,9.45,.39,2.32,.25,4.67-.64,6.92Z"/></g></g></svg>