<?xml version="1.0" encoding="UTF-8"?><svg id="Camada_2" xmlns="http://www.w3.org/2000/svg" viewBox="0 0 32.83 30.43"><defs><style>.cls-1{fill:#1a1818;}.cls-2{fill:#c4c4c4;}</style></defs><g id="Camada_1-2"><g><g><path class="cls-2" d="M15.57,4.77h2.28c6.72,0,12.18,5.46,12.18,12.18v4.14c0,5.16-4.19,9.34-9.34,9.34h-7.95c-5.16,0-9.34-4.19-9.34-9.34v-4.14c0-6.72,5.46-12.18,12.18-12.18Z"/><rect class="cls-2" x="0" y="17.07" width="32.83" height="6.88" rx="3.14" ry="3.14"/></g><path class="cls-1" d="M30.26,17.96c-.08,.23-.13,.49-.42,.77-.06-1.19-.23-2.26-.15-3.32,.14-1.7-.94-2.58-2.15-3.24-2.25-1.25-4.69-2.1-7.17-2.72-2-.5-4.06-.42-6.09,0-3.06,.63-5.85,1.91-8.5,3.51-.89,.54-1.53,1.4-2.14,2.23-.36,.49-.16,1.19-.25,1.79-.05,.3-.05,.61-.08,.91-.98-2.31-1.12-4.73-.57-7.13C4,5.25,7.41,1.69,12.91,.47c3.8-.84,7.64-.64,11.22,1.24,4.55,2.39,7.34,7.56,6.88,12.67-.11,1.23-.33,2.42-.75,3.57Z"/></g></g></svg>