<?xml version="1.0" encoding="UTF-8"?><svg id="Camada_2" xmlns="http://www.w3.org/2000/svg" viewBox="0 0 32.83 32.22"><defs><style>.cls-1{fill:#1a1818;}.cls-2{fill:#c4c4c4;}</style></defs><g id="Camada_1-2"><g><g><path class="cls-2" d="M15.57,6.56h2.28c6.72,0,12.18,5.46,12.18,12.18v4.14c0,5.16-4.19,9.34-9.34,9.34h-7.95c-5.16,0-9.34-4.19-9.34-9.34v-4.14c0-6.72,5.46-12.18,12.18-12.18Z"/><rect class="cls-2" x="0" y="18.86" width="32.83" height="6.88" rx="3.14" ry="3.14"/></g><path class="cls-1" d="M30.16,19.44c-.11,.23-.16,.67-.35,.64-.23-.04-.1-.44-.12-.68-.07-1.02-.12-2.04-.16-3.06-.02-.43-.21-.75-.52-1.08-1.13-1.22-2.69-1.73-4.2-2.3-1.41-.53-2.85-1.02-4.32-1.36-1.99-.45-4.03-.4-6.04-.01-2.83,.55-5.44,1.62-7.91,3.01-1,.56-1.75,1.4-2.51,2.22-.16,.18-.14,.41-.16,.62-.05,.65-.11,1.3-.16,1.95-.56-1.03-.73-2.14-.8-3.27-.03-.39-.12-.68-.45-.96-.75-.64-.92-1.61-.42-2.44,.21-.35,.18-.6,.02-.95-.8-1.65,.1-3.48,1.95-4.02,.33-.1,.54-.18,.61-.57,.33-1.83,1.63-2.79,3.61-2.68,.43,.03,.62,.02,.67-.49,.2-1.96,2.26-3.12,4.38-2.48,.46,.14,.66,.09,.94-.28,1.29-1.68,4.09-1.66,5.37,.02,.27,.35,.46,.4,.89,.26,1.8-.57,3.46,.12,4.24,1.74,.15,.31,.3,.39,.67,.35,1.88-.22,3.22,.61,3.73,2.29,.08,.25,.19,.34,.44,.42,2.38,.75,3.12,2.54,1.91,4.56-.14,.23-.12,.35,.04,.56,.81,1.04,.72,2.07-.28,2.9-.31,.26-.34,.54-.34,.87,0,1.44-.18,2.86-.75,4.22Z"/></g></g></svg>