<?xml version="1.0" encoding="UTF-8"?><svg id="Camada_2" xmlns="http://www.w3.org/2000/svg" viewBox="0 0 32.83 32.88"><defs><style>.cls-1{fill:#5c2867;}.cls-2{fill:#1a1818;}.cls-3{fill:#c4c4c4;}</style></defs><g id="Camada_1-2"><g><g><path class="cls-2" d="M.38,22.08c.63,1.05,2.23,1.63,3.45,1.63,.09,0,.14-.04,.32,.38,1.6,3.75,4.44,5.88,8.53,6.13,2.55,.15,5.14,.16,7.69-.01,4-.27,7.62-2.82,9.22-6.48,.18-.41-.49,.03,0,0,1.2-.08,2.16-.38,2.71-1.43,.05,.61,.15,.85,.15,1.43,0,.29,.04,.42,.08,.71,.3,2.18-.49,4-1.38,5.92-.04,.09-.06,.22-.27,.24l-.25-2.04c-.2,.22-.22,.44-.22,.63-.03,1.69-1,2.58-2.52,3.03-.43,.13-.86,.26-1.28,.42-.46,.17-.57,.04-.46-.41,.05-.21,.05-.44,.07-.67,.04-.13,.02-.21-.14-.14-.31,1.24-1.11,1.47-2.33,1.46-5.78-.07-11.56-.05-17.34-.01-.76,0-1.23-.2-1.54-.88-.16-.33-.39-.63-.73-.88l.5,1.47c-.48-.13-.69-.46-1-.65-2.59-1.62-3.26-4.17-3.38-6.98-.03-.74,0-1.48,0-2.22,0-.29,.05-.39,.12-.65Z"/><path class="cls-1" d="M26.08,31.42c.03-.12,.09-.32,.19-.25,.13,.08,.02,.27-.05,.4l-.14-.14Z"/></g><g><path class="cls-3" d="M15.57,4.56h2.28c6.72,0,12.18,5.46,12.18,12.18v4.14c0,5.16-4.19,9.34-9.34,9.34h-7.95c-5.16,0-9.34-4.19-9.34-9.34v-4.14c0-6.72,5.46-12.18,12.18-12.18Z"/><rect class="cls-3" x="0" y="16.86" width="32.83" height="6.88" rx="3.14" ry="3.14"/></g><path class="cls-2" d="M30.73,17.03c-.51-.15-.29-.08-.71-.18-.08,0-.11,.59-.65,1.44-.06-.07-.42-.46-.48-.53-.14-1.31-.28-2.63-.4-3.94-.08-.83-.77-1.49-1.63-1.51-.52,0-1.04-.03-1.55,0-2.23,.16-4.19-.55-5.96-1.85-.48-.35-.85-.81-1.2-1.27-.32-.43-.54-.37-.88-.03-.48,.5-1.01,.96-1.53,1.42-1.78,1.58-3.92,2.54-6.15,3.21-1.6,.48-3.3,.68-5,.57-.6-.04-.84,.14-.85,.77,0,1.09,0,1.85-.26,1.71-.22,0-1.58,.22-1.8,.32,.11-.52,0-.55,.12-1.07,.44-1.85,.88-3.69,1.17-5.58C3.9,4.6,9.04,.16,15.06,.03c1.75-.04,3.5-.11,5.24,.28,5.1,1.13,9.04,5.49,9.72,10.65,.28,2.08,.82,4.12,1.25,6.19,.05,.24,0,.14-.53-.11Z"/></g></g></svg>