<?xml version="1.0" encoding="UTF-8"?><svg id="Camada_2" xmlns="http://www.w3.org/2000/svg" viewBox="0 0 32.83 49.29"><defs><style>.cls-1{fill:#1a1818;}.cls-2{fill:#572761;}.cls-3{fill:#46234d;}.cls-4{fill:#c4c4c4;}</style></defs><g id="Camada_1-2"><g><g><path class="cls-1" d="M26,43.23c-.13,.4-.29,.96-.36,1.36-.12,.7-.53,2.84-1.27,2.84-5.82,3.36-13.43,1.59-17.7-.84-.54,0-1.03-1.02-1.2-1.55-.22-.66-.52-1.3-.79-1.94-.05-.04-.09-.08-.13-.11,0,.01,0,.05,0,.06-.03,.11-.04,.21,.03,.3l.5,2.21c-1.74-1.94-3.19-3.78-3.73-6.34-.61-2.92-.7-5.82-.54-8.74,.11-2.06,.53-4.11,1.01-6.13,.13-.11,.29-.12,.43-.05,.54,.26,1.13,.34,1.71,.45,.46,.09,.74,.34,.91,.76,1.18,2.88,22.8,1.28,23.22,.23,.27-.67,.67-1.1,1.44-1.14,.33-.02,.63-.18,.92-.32,.2-.09,.39-.22,.61-.06,.35,.73,.29,1.53,.44,2.3,.68,3.41,.63,6.87,.6,10.33,0,.67-.24,1.29-.4,1.92-.32,1.22-.65,2.44-1.13,3.66l-.23-2.87-.17-.04c.04,1.79-.2,3.54-1.54,4.77-.7,.65-2.13,2-3.1,2.49,.05-.69,.47-2.32,.5-2.89-.02-.1,.03-.13-.02-.66Z"/><path class="cls-2" d="M4.57,43.35c-.12-.15-.14-.33-.15-.52-.05-.14,.01-.16,.13-.13l.13,.4-.11,.25Z"/><path class="cls-3" d="M4.55,42.71l-.13,.13c-.06-.12-.2-.24-.03-.38l.16,.26Z"/></g><g><path class="cls-4" d="M15.57,5.37h2.28c6.72,0,12.18,5.46,12.18,12.18v4.14c0,5.16-4.19,9.34-9.34,9.34h-7.95c-5.16,0-9.34-4.19-9.34-9.34v-4.14c0-6.72,5.46-12.18,12.18-12.18Z"/><rect class="cls-4" x="0" y="17.67" width="32.83" height="6.88" rx="3.14" ry="3.14"/></g><path class="cls-1" d="M2.68,17.54h0q1.13-.23,1.32-1.35,.24-1.44,1.67-1.44c1,0,6.43-.06,6.41-.13,.31-1.14,.62-2.28,.93-3.41l.14-.64,.15-.56c.16,.34,.08,.57-.02,.81-.04,.31,.01,.64-.14,.94-.08,.8-.13,1.61-.25,2.41-.07,.46,.04,.6,.52,.59,2.36-.02,9.08-.02,9.04-.02-.15-1.83-.58-3.61-.86-5.41-.02-.12-.03-.25,.06-.4l1.84,5.56c-.07,.03,.75,.41,.8,.28,1.33,0,2.67,0,4-.03,.41-.01,.54,.17,.59,.51,.07,.5,.2,.99,.22,1.49,.01,.47,.14,.72,.64,.76,.21,.01,.42,.12,.63,.18h0c.02-.92-.36-1.83-.27-2.73,.13-1.35,.02-2.67-.25-3.97C28.54,4.46,22.6-.14,16.29,0,11.48,.11,7.73,2.1,4.98,5.99c-1.46,2.06-2.33,4.33-2.14,6.95,.11,1.47,.22,2.96-.2,4.42-.02,.06,.02,.13,.03,.19h0Z"/></g></g></svg>