<?xml version="1.0" encoding="UTF-8"?><svg id="Camada_2" xmlns="http://www.w3.org/2000/svg" viewBox="0 0 32.83 25.67"><defs><style>.cls-1{fill:#cd4343;}.cls-2{fill:#c4c4c4;}</style></defs><g id="Camada_1-2"><g><g><path class="cls-2" d="M15.57,0h2.28C24.57,0,30.02,5.46,30.02,12.18v4.14c0,5.16-4.19,9.34-9.34,9.34h-7.95c-5.16,0-9.34-4.19-9.34-9.34v-4.14C3.39,5.46,8.85,0,15.57,0Z"/><rect class="cls-2" x="0" y="12.3" width="32.83" height="6.88" rx="3.14" ry="3.14"/></g><g><path class="cls-1" d="M18.5,19.96c0,.24,0,.48,0,.73-.06,.95-.73,1.61-1.65,1.65-1.06,.05-1.74-.45-1.92-1.42-.06-.32-.08-.64-.11-.96,.09-.27,.3-.37,.56-.37,.86-.02,1.71-.02,2.57,0,.26,0,.46,.12,.56,.38Z"/><path d="M18.5,19.96c-1.23,0-2.46,0-3.69,0-.35-.02-.7,0-1.04-.06-.25-.04-.47-.22-.44-.49,.04-.32,.33-.2,.52-.2,1.91,0,3.81,0,5.72,0,.19,0,.5-.12,.5,.21,0,.24-.2,.46-.46,.49-.37,.05-.75,.05-1.12,.06Z"/></g></g></g></svg>