<?xml version="1.0" encoding="UTF-8"?><svg id="Camada_2" xmlns="http://www.w3.org/2000/svg" viewBox="0 0 32.83 25.67"><defs><style>.cls-1{fill:#010000;}.cls-2{fill:#c4c4c4;}.cls-3{fill:#fdfbfb;}</style></defs><g id="Camada_1-2"><g><g><path class="cls-2" d="M15.57,0h2.28C24.57,0,30.02,5.46,30.02,12.18v4.14c0,5.16-4.19,9.34-9.34,9.34h-7.95c-5.16,0-9.34-4.19-9.34-9.34v-4.14C3.39,5.46,8.85,0,15.57,0Z"/><rect class="cls-2" x="0" y="12.3" width="32.83" height="6.88" rx="3.14" ry="3.14"/></g><g><path class="cls-1" d="M15.71,20.33c-.67-.07-1.43,.12-1.88-.62-.09-.15-.2-.3-.12-.46,.11-.21,.4-.17,.52-.1,1.01,.61,2.1,.28,3.15,.29,.91,.02,1.87,.28,2.74-.29,.13-.08,.37,0,.59,.02-.13,.74-.57,1.09-1.26,1.13-.42,.03-.83,.02-1.25,.03-.83,.37-1.67,.37-2.5,0Z"/><path class="cls-3" d="M15.71,20.33h2.5c0,.25,0,.5,.01,.75,.03,.4-.14,.56-.54,.54-.25-.02-.5,0-.75,0q-1.25,0-1.23-1.28Z"/></g></g></g></svg>