<?xml version="1.0" encoding="UTF-8"?><svg id="Camada_2" xmlns="http://www.w3.org/2000/svg" viewBox="0 0 33.33 15.91"><defs><style>.cls-1{fill:#fff;}</style></defs><g id="Camada_1-2"><g><path class="cls-1" d="M8.01,0H0V7.96c0,4.39,3.56,7.96,7.96,7.96h0c3.4,0,6.16-2.76,6.16-6.16v-3.65c0-3.37-2.73-6.11-6.11-6.11Zm-.24,13.96c-2.53,0-4.58-3.04-4.58-6.78S5.24,.4,7.77,.4s4.58,3.04,4.58,6.78-2.05,6.78-4.58,6.78Z"/><path class="cls-1" d="M25.32,0c-3.37,0-6.11,2.73-6.11,6.11v3.65c0,3.4,2.76,6.16,6.16,6.16,4.39,0,7.96-3.56,7.96-7.96V0h-8.01Zm.32,13.96c-2.53,0-4.58-3.04-4.58-6.78S23.1,.4,25.63,.4s4.58,3.04,4.58,6.78-2.05,6.78-4.58,6.78Z"/></g></g></svg>